<?xml version="1.0" ?>
<!DOCTYPE svg  PUBLIC '-//W3C//DTD SVG 1.1//EN'  'http://www.w3.org/Graphics/SVG/1.1/DTD/svg11.dtd' [
	<!ENTITY stroke_color "#000">
	<!ENTITY fill_color "#aaa">
]>
<svg height="55px" viewBox="0 0 55 55" width="55px" xmlns="http://www.w3.org/2000/svg" xmlns:xlink="http://www.w3.org/1999/xlink" stroke-linecap="round" stroke-linejoin="round" stroke-width="3.5" stroke="&stroke_color;" fill="&fill_color;">
  <path
     d="m 12.5502,9.1021241 c 2.298661,-1.7463079 4.291423,-4.090441 6.992255,-5.1097244 3.705511,-1.3984452 7.972664,-1.9611219 11.833046,-1.0757315 4.350589,0.9978209 8.287901,3.7770609 11.474469,6.9026103 3.930068,3.8548125 7.698677,8.5877865 8.78514,13.9845095 1.231295,6.116142 -0.541666,12.7534 -3.047905,18.466723 -0.974898,2.222418 -4.162624,5.574632 -4.482215,5.737234 -2.358577,1.2 -20.887119,4.302926 -21.424985,4.302926 -0.537866,0 -4.963419,0.561534 -14.2534419,-9.681583 C 4.9069361,38.748371 3.2644652,33.151508 2.8686172,27.927425 2.5223334,23.357451 3.3169779,18.372687 5.7372345,14.480781 7.2652036,12.023722 10.24625,10.85245 12.5502,9.1021241 z"
     id="path3795"
     style="fill:&fill_color;;fill-opacity:1;stroke:none" />
  <path
     d="m 19.318435,52.003335 c -0.887739,-0.3386 -2.082995,-0.90039 -2.656124,-1.24842 -1.472758,-0.89431 -8.7033932,-8.04577 -10.0932002,-9.98268 -4.141819,-5.77227 -5.174203,-13.58528 -2.855991,-21.61395 1.457924,-5.04924 4.028545,-8.39703 7.9669162,-10.3755198 1.287248,-0.64666 2.939495,-1.65673 3.671661,-2.24458 2.683061,-2.15424 3.417129,-2.61467 4.908634,-3.07888 2.169195,-0.67513 6.579196,-1.13165 9.549933,-0.9886 2.288057,0.11018 2.772712,0.23044 4.801952,1.19155 6.121283,2.89921 13.371469,9.9211098 15.85498,15.3557598 1.466489,3.2091 2.036071,5.9249 2.03279,9.69242 -0.0033,3.75611 -0.342223,5.41568 -2.00722,9.82766 -2.976166,7.88638 -5.19663,10.12539 -10.911476,11.0026 -1.345531,0.20653 -4.597884,0.94043 -7.227447,1.63087 -4.217022,1.10728 -5.172691,1.2667 -8.101181,1.3514 -2.968794,0.0859 -3.490966,0.0309 -4.934227,-0.51963 z m 10.379284,-0.97612 c 1.168695,-0.30919 2.9987,-0.76829 4.066678,-1.02023 1.093327,-0.25791 1.847703,-0.56107 1.726481,-0.69381 -0.122174,-0.13378 -0.06624,-0.14973 0.129326,-0.0369 0.189541,0.10937 0.906695,0.0788 1.593675,-0.0679 0.686977,-0.14672 2.115611,-0.40719 3.174741,-0.57882 1.059129,-0.17163 1.92569,-0.42072 1.92569,-0.55354 0,-0.13282 0.08964,-0.21548 0.199209,-0.18368 0.550179,0.15965 2.037704,-0.68707 3.135295,-1.78466 2.08076,-2.08076 5.242167,-9.50906 5.971748,-14.03171 0.6735,-4.17501 -0.184048,-9.59456 -2.1273,-13.44412 C 46.994975,13.682775 40.24968,7.2478452 34.633568,4.4558752 c -2.229707,-1.10846 -2.244874,-1.11167 -5.669896,-1.19945 -3.521508,-0.0903 -7.620722,0.4037 -9.33032,1.12431 -0.454159,0.19143 -1.821118,1.13417 -3.037685,2.09497 -1.216568,0.9608 -3.228467,2.25758 -4.470887,2.88172 -2.3992082,1.2052798 -4.6619342,3.3000298 -5.6551572,5.2353598 -1.309095,2.55081 -1.70434,3.54447 -2.340324,5.88366 -0.602009,2.21423 -0.686798,3.04389 -0.692191,6.77311 -0.0067,4.61241 0.307089,6.49191 1.554689,9.31295 0.629283,1.42293 2.251498,4.09258 2.913031,4.79394 0.153055,0.16226 0.731321,0.78977 1.285034,1.39446 0.553714,0.60469 1.1012632,1.09943 1.2167762,1.09943 0.115513,0 0.372181,0.30299 0.570373,0.67332 0.207739,0.38817 0.51381,0.61443 0.722709,0.53427 0.199299,-0.0765 0.299786,-0.0378 0.223305,0.0859 -0.152745,0.24715 3.267866,3.65211 4.415987,4.39579 0.395314,0.25606 0.862003,0.37702 1.037086,0.26882 0.189035,-0.11683 0.248909,-0.0844 0.147411,0.0798 -0.2312,0.37409 0.301858,0.77663 1.705449,1.28786 2.58112,0.94013 6.56655,0.88343 10.468761,-0.14894 z m 10.621395,-4.25856 c -1.200685,-1.32674 -0.187676,-3.275 1.708616,-3.28607 1.317756,-0.008 1.469764,0.14033 1.469764,1.43134 0,1.945 -2.026493,3.12755 -3.17838,1.85473 z m -26.724829,-0.46139 c -0.330388,-0.42128 -0.320993,-0.43067 0.100283,-0.10029 0.255652,0.2005 0.464822,0.40967 0.464822,0.46482 0,0.21861 -0.218117,0.0779 -0.565105,-0.36453 z m 1.73371,-2.03936 c -1.244056,-0.54157 -1.58572,-2.00578 -0.703783,-3.01608 0.563196,-0.64517 2.899936,-0.97607 3.542382,-0.50163 1.109069,0.81903 1.444503,3.13029 0.525669,3.62203 -0.707441,0.37861 -2.373591,0.32695 -3.364268,-0.10432 z m 12.444034,-2.40764 c -1.298553,-0.93552 -0.239888,-3.33628 1.935605,-4.38942 1.385076,-0.6705 2.275218,-0.74366 3.17689,-0.2611 1.134552,0.60719 1.30162,2.99182 0.291852,4.16574 -0.581968,0.67658 -0.822381,0.74976 -2.722528,0.82872 -1.602368,0.0666 -2.22235,-0.0129 -2.681819,-0.34394 z m 15.60473,-7.11463 c -1.933735,-0.95848 -2.241272,-1.60432 -1.472164,-3.09161 0.596982,-1.15444 2.194158,-2.67797 2.807414,-2.67797 1.367176,0 3.072605,4.21916 2.332595,5.77075 -0.499479,1.04726 -1.553317,1.04692 -3.667845,-0.001 z m -24.288478,-4.76624 c -1.076827,-1.53738 -0.16101,-2.88456 2.087707,-3.07104 1.305041,-0.10823 1.469547,-0.0591 1.875657,0.56076 0.706573,1.07836 0.43474,1.82297 -0.913759,2.50298 -1.521901,0.76745 -2.51551,0.76983 -3.049605,0.007 z m -13.5254752,-2.6163 c -1.124551,-0.88457 -0.820092,-2.7017 0.675444,-4.03131 1.135331,-1.00936 2.30827,-0.97815 3.529292,0.0939 0.7083302,0.62192 0.9388862,1.03359 0.9388862,1.6764 0,2.10242 -3.4290012,3.60971 -5.1436222,2.26099 z m 24.6662362,-2.46661 c -0.691116,-1.05477 0.115687,-2.27026 1.517829,-2.28668 1.201333,-0.0141 1.721968,1.626 0.785267,2.4737 -0.714359,0.64649 -1.815554,0.55706 -2.303096,-0.18702 z M 5.9463738,21.693845 c -0.01153,-0.28 0.05124,-0.43688 0.139505,-0.34862 0.08826,0.0883 0.0977,0.31735 0.02097,0.50909 -0.08479,0.21189 -0.14773,0.14895 -0.160475,-0.16047 z m 36.7165682,-0.36362 c -0.424457,-0.2699 -0.808923,-1.40503 -0.676616,-1.99771 0.05892,-0.26395 0.412008,-0.59582 0.784635,-0.73749 1.399409,-0.53205 2.433496,0.98277 1.658904,2.43011 -0.277459,0.51844 -1.184958,0.67513 -1.766923,0.30509 z m -26.741251,-5.65407 c -0.392224,-0.30853 -0.699851,-0.81799 -0.699851,-1.15904 0,-0.77119 1.121438,-1.90761 2.059395,-2.08691 1.431972,-0.27374 2.851931,1.49792 2.190745,2.73336 -0.620176,1.15881 -2.401746,1.41603 -3.550289,0.51259 z m 17.379068,-1.508 c -0.43337,-0.40174 -0.807995,-0.90972 -0.832498,-1.12885 -0.12708,-1.13645 0.06436,-1.60381 0.816222,-1.99261 2.142584,-1.1079698 4.123468,1.26084 2.63585,3.15205 -0.712891,0.90629 -1.620361,0.89569 -2.619574,-0.0306 z M 9.5225148,11.463985 c -0.08405,-0.13599 -0.05126,-0.31002 0.07286,-0.38674 0.124122,-0.0767 0.225676,0.0346 0.225676,0.24726 0,0.44787 -0.08376,0.487 -0.298538,0.13948 z M 23.343716,8.7416952 c -0.522687,-0.61064 -0.95034,-1.20013 -0.95034,-1.30997 0,-0.41787 1.56225,-1.28704 2.616242,-1.45558 1.217046,-0.19461 1.793491,0.11031 2.192491,1.15976 0.307085,0.8077 -0.07885,1.53059 -1.173513,2.19805 -1.217027,0.7420698 -1.618561,0.6535 -2.68488,-0.59226 z"
     id="path2987"
     style="fill:&stroke_color;;fill-opacity:1;stroke:none" />
</svg>
