<?xml version="1.0" ?><!DOCTYPE svg  PUBLIC '-//W3C//DTD SVG 1.1//EN'  'http://www.w3.org/Graphics/SVG/1.1/DTD/svg11.dtd' [
	<!ENTITY stroke_color "#000">
	<!ENTITY fill_color "#eee">
]><svg height="55px" viewBox="0 0 55 55" width="55px" xmlns="http://www.w3.org/2000/svg" xmlns:xlink="http://www.w3.org/1999/xlink" stroke-linecap="round" stroke-linejoin="round" stroke-width="3.5" stroke="&stroke_color;" fill="&fill_color;">
  <g
     transform="matrix(0.15517161,0,0,0.15517161,0.5476181,0.67353225)"
     id="g3793"
     style="stroke-width:7.73337317;stroke-miterlimit:4;stroke-dasharray:none">
    <path
       d="m 12.492955,169.42623 c 25.131531,-12.0997 90.578215,-9.41548 121.769345,-10.65574 35.7774,-1.42262 74.27633,-1.53204 103.45863,-22.27907 17.47887,-12.42653 49.56887,-47.453631 57.49199,-77.033651 3.98997,-14.896083 -1.62928,-24.252959 -5.37685,-39.211867 -5.14351,-20.53101132 20.52399,-19.25153267 30.09941,-16.540888 8.60686,2.4364619 -3.58452,20.898015 -2.70683,25.445215 2.97854,15.431491 2.48825,29.169798 6.70578,35.849771 3.88508,6.153427 15.28106,6.64746 17.70444,15.622279 9.55187,35.374641 -10.40811,80.200091 -30.90164,110.574731 -21.02806,31.16688 -78.24059,55.29145 -123.55758,63.16279 C 168.60762,257.58566 60.238798,247.85106 39.426229,234.42623 31.67892,229.42895 18.578606,212.81151 10.196434,203.16326 1.9604627,193.6833 1.1781426,174.8738 12.492955,169.42623 z"
       id="path2987"
       style="fill:&fill_color;;fill-opacity:1;stroke:&stroke_color;;stroke-width:7.73337317;stroke-linecap:butt;stroke-linejoin:miter;stroke-miterlimit:4;stroke-opacity:1;stroke-dasharray:none" />
    <path
       d="m 289.21856,18.560959 c 1.40774,3.272105 11.33615,0.540011 14.74048,-0.508292 5.88758,-1.812975 16.98934,-3.62167 15.75708,-9.6575619 -0.92505,-4.5311003 -13.89293,-5.472511 -18.29853,-4.0663417 -5.59369,1.7853818 -14.51954,8.8384826 -12.19903,14.2321956 z"
       id="path3759"
       style="fill:&stroke_color;;fill-opacity:1;stroke:&stroke_color;;stroke-width:7.73337317;stroke-linecap:butt;stroke-linejoin:miter;stroke-miterlimit:4;stroke-opacity:1;stroke-dasharray:none" />
    <path
       d="m 14.232196,183.2478 c -0.550401,4.44234 -2.357001,13.09359 -6.6078052,11.69073 -7.8629093,-2.59494 -5.2085859,-24.05314 3.0497562,-24.65219 4.468577,-0.32415 4.108942,8.51514 3.558049,12.96146 z"
       id="path3757"
       style="fill:&stroke_color;;fill-opacity:1;stroke:&stroke_color;;stroke-width:7.73337317;stroke-linecap:butt;stroke-linejoin:miter;stroke-miterlimit:4;stroke-opacity:1;stroke-dasharray:none" />
    <path
       d="m 12.492955,169.42623 c 25.131531,-12.0997 90.578215,-9.41548 121.769345,-10.65574 35.7774,-1.42262 74.27633,-1.53204 103.45863,-22.27907 17.47887,-12.42653 49.56887,-47.453629 57.49199,-77.033649 3.98997,-14.89608 -1.62928,-24.25296 -5.37685,-39.21187 -5.14351,-20.53100972 20.52399,-19.25152972 30.09941,-16.5408897 8.60686,2.43647 -3.58452,20.8980197 -2.70683,25.4452197 2.97854,15.43149 2.48825,29.1698 6.70578,35.84977 3.88508,6.15343 15.28106,6.64746 17.70444,15.62228 9.55187,35.374639 -10.40811,80.200089 -30.90164,110.574729 -21.02806,31.16688 -78.24059,55.29145 -123.55758,63.16279 C 168.60762,257.58566 60.238798,247.85106 39.426229,234.42623 31.67892,229.42895 18.578606,212.81151 10.196434,203.16326 1.9604625,193.6833 1.1781425,174.8738 12.492955,169.42623 z"
       id="path2987-2"
       style="fill:none;stroke:&stroke_color;;stroke-width:7.73337317;stroke-linecap:butt;stroke-linejoin:miter;stroke-miterlimit:4;stroke-opacity:1;stroke-dasharray:none" />
  </g>
</svg>
