<svg id="Layer_1" data-name="Layer 1" xmlns="http://www.w3.org/2000/svg" width="536.34" height="932" viewBox="0 0 536.34 932"><defs><style>.cls-1,.cls-3,.cls-4{fill:none;}.cls-1{stroke:#304752;}.cls-1,.cls-4{stroke-linecap:round;stroke-linejoin:round;}.cls-1,.cls-3{stroke-width:4px;}.cls-2{fill:#304752;}.cls-3{stroke:#14bf96;stroke-miterlimit:10;}.cls-4{stroke:#10a7e3;stroke-width:3.34px;}.cls-5{fill:#b32471;}</style></defs><title>pig latin v2</title><line class="cls-1" x1="119.65" y1="571" x2="260.28" y2="854.17"/><polygon class="cls-2" points="249.32 852.08 258.96 851.51 265.24 844.18 266.65 867 249.32 852.08"/><line class="cls-1" x1="411.65" y1="776" x2="278.78" y2="859.38"/><polygon class="cls-2" points="279.77 848.27 281.3 857.81 289.22 863.33 266.65 867 279.77 848.27"/><line class="cls-1" x1="336.65" y1="439" x2="401.18" y2="499.22"/><polygon class="cls-2" points="390.18 501.12 399.01 497.2 402.31 488.13 411.65 509 390.18 501.12"/><line class="cls-1" x1="205.65" y1="448" x2="136.09" y2="500.38"/><polygon class="cls-2" points="136.13 489.23 138.46 498.6 146.82 503.43 124.65 509 136.13 489.23"/><line class="cls-1" x1="266.65" y1="173" x2="266.65" y2="196.67"/><polygon class="cls-2" points="257.76 189.93 266.65 193.71 275.54 189.93 266.65 211 257.76 189.93"/><path d="M244,28.32a1.05,1.05,0,0,1-.28.33.61.61,0,0,1-.36.11,1,1,0,0,1-.5-.17c-.17-.11-.38-.24-.63-.38a5.41,5.41,0,0,0-.86-.37,3.68,3.68,0,0,0-1.16-.17,3.35,3.35,0,0,0-1.06.15,2.17,2.17,0,0,0-.77.41,1.65,1.65,0,0,0-.46.62,2.06,2.06,0,0,0-.15.79,1.35,1.35,0,0,0,.31.92,2.52,2.52,0,0,0,.82.63,7,7,0,0,0,1.16.47c.43.13.87.28,1.33.44a10.89,10.89,0,0,1,1.33.54,4.38,4.38,0,0,1,1.16.78,3.42,3.42,0,0,1,.81,1.15,4,4,0,0,1,.31,1.66,5.4,5.4,0,0,1-.36,2,4.65,4.65,0,0,1-1.06,1.62,4.9,4.9,0,0,1-1.71,1.08,6.34,6.34,0,0,1-2.3.39,7.18,7.18,0,0,1-1.47-.14,8.1,8.1,0,0,1-1.4-.42,7.78,7.78,0,0,1-1.25-.65,6.16,6.16,0,0,1-1-.84l.86-1.4a1,1,0,0,1,.28-.25.72.72,0,0,1,.37-.11,1.08,1.08,0,0,1,.58.22c.21.15.46.32.75.5a6.34,6.34,0,0,0,1,.49,3.86,3.86,0,0,0,1.39.22,2.82,2.82,0,0,0,1.93-.59,2.08,2.08,0,0,0,.68-1.69,1.62,1.62,0,0,0-.3-1,2.44,2.44,0,0,0-.82-.65,5.84,5.84,0,0,0-1.16-.45l-1.32-.4a12.47,12.47,0,0,1-1.32-.52,4.49,4.49,0,0,1-1.16-.79,3.69,3.69,0,0,1-.82-1.22,4.78,4.78,0,0,1-.31-1.81,4.4,4.4,0,0,1,.34-1.66,4.3,4.3,0,0,1,1-1.44,4.71,4.71,0,0,1,1.6-1,5.89,5.89,0,0,1,2.18-.38,7.28,7.28,0,0,1,2.56.44,5.63,5.63,0,0,1,2,1.21Z"/><path d="M258.51,27.87h-4.72V41.13h-2.91V27.87h-4.72V25.48h12.35Z"/><path d="M272.46,41.13H270.2a.93.93,0,0,1-.61-.19,1.12,1.12,0,0,1-.36-.47l-1.17-3.19h-6.48l-1.17,3.19a1,1,0,0,1-.34.46,1,1,0,0,1-.62.2h-2.27l6.16-15.65h3Zm-5.15-5.91L265.41,30a8.36,8.36,0,0,1-.29-.82c-.11-.32-.21-.66-.31-1-.09.37-.19.71-.29,1s-.2.59-.29.83l-1.9,5.19Z"/><path d="M286.3,41.13h-2.63a1.14,1.14,0,0,1-1.08-.58l-3.29-5a1.19,1.19,0,0,0-.41-.4,1.39,1.39,0,0,0-.65-.12H277v6.12h-2.91V25.48h4.77a9.93,9.93,0,0,1,2.74.33,5.19,5.19,0,0,1,1.87.92,3.58,3.58,0,0,1,1.08,1.43,4.69,4.69,0,0,1,.35,1.82,4.56,4.56,0,0,1-.24,1.49,4.23,4.23,0,0,1-.67,1.28,4.55,4.55,0,0,1-1.08,1,5.52,5.52,0,0,1-1.47.68,3.31,3.31,0,0,1,.52.38,2.84,2.84,0,0,1,.43.53Zm-7.49-8.21a4.47,4.47,0,0,0,1.44-.2,2.85,2.85,0,0,0,1-.57,2.21,2.21,0,0,0,.59-.86,3,3,0,0,0,.2-1.09,2.19,2.19,0,0,0-.79-1.83,3.72,3.72,0,0,0-2.4-.64H277v5.19Z"/><path d="M298.53,27.87h-4.72V41.13h-2.92V27.87h-4.72V25.48h12.36Z"/><ellipse class="cls-3" cx="266.52" cy="33.5" rx="103" ry="31.5"/><rect class="cls-4" x="143.67" y="108.5" width="246" height="62"/><path d="M223.34,145.74h-2.25a1,1,0,0,1-.62-.19,1.12,1.12,0,0,1-.36-.47L219,141.89h-6.49l-1.17,3.19a1.1,1.1,0,0,1-.33.46,1,1,0,0,1-.62.2h-2.28l6.17-15.65h3Zm-5.14-5.91-1.91-5.21c-.09-.23-.19-.5-.29-.82s-.2-.66-.3-1c-.1.37-.19.71-.29,1s-.2.61-.3.84l-1.89,5.19Z"/><path d="M230.05,130.09a9.1,9.1,0,0,1,2.72.36,5.31,5.31,0,0,1,1.9,1,4.28,4.28,0,0,1,1.11,1.58,5.54,5.54,0,0,1,.36,2,5.62,5.62,0,0,1-.38,2.08,4.23,4.23,0,0,1-1.14,1.63,5.14,5.14,0,0,1-1.9,1.06,8.55,8.55,0,0,1-2.67.38h-2.17v5.51H225V130.09Zm0,7.87a4.5,4.5,0,0,0,1.4-.2,2.68,2.68,0,0,0,1-.58,2.35,2.35,0,0,0,.59-.91,3.41,3.41,0,0,0,.2-1.19,3.17,3.17,0,0,0-.2-1.14,2.26,2.26,0,0,0-.58-.87,2.62,2.62,0,0,0-1-.54,4.58,4.58,0,0,0-1.41-.19h-2.17V138Z"/><path d="M243.46,130.09a9.08,9.08,0,0,1,2.71.36,5.31,5.31,0,0,1,1.9,1,4.06,4.06,0,0,1,1.11,1.58,5.54,5.54,0,0,1,.36,2,5.42,5.42,0,0,1-.38,2.08,4.31,4.31,0,0,1-1.13,1.63,5.22,5.22,0,0,1-1.9,1.06,8.64,8.64,0,0,1-2.67.38h-2.18v5.51h-2.91V130.09Zm0,7.87a4.43,4.43,0,0,0,1.39-.2,2.68,2.68,0,0,0,1-.58,2.24,2.24,0,0,0,.59-.91,3.41,3.41,0,0,0,.2-1.19,3.17,3.17,0,0,0-.2-1.14,2.26,2.26,0,0,0-.58-.87,2.62,2.62,0,0,0-1-.54,4.47,4.47,0,0,0-1.4-.19h-2.18V138Z"/><path d="M254.69,132.4v4.34h5.48V139h-5.48v4.42h7v2.33h-9.88V130.09h9.88v2.31Z"/><path d="M277.42,130.09v15.65h-1.49a1.39,1.39,0,0,1-.58-.11,1.34,1.34,0,0,1-.45-.39l-8.18-10.43a12.45,12.45,0,0,1,.07,1.32v9.61h-2.57V130.09h1.85a.61.61,0,0,1,.24.07.81.81,0,0,1,.2.14l.21.24L274.93,141c0-.25,0-.5-.05-.74s0-.48,0-.69v-9.51Z"/><path d="M294.81,137.91a8.36,8.36,0,0,1-.58,3.17,7.19,7.19,0,0,1-1.61,2.47,7.11,7.11,0,0,1-2.5,1.62,8.87,8.87,0,0,1-3.25.57h-6V130.09h6a8.67,8.67,0,0,1,3.25.58,7.09,7.09,0,0,1,4.11,4.08A8.34,8.34,0,0,1,294.81,137.91Zm-3,0a7.24,7.24,0,0,0-.34-2.31,4.81,4.81,0,0,0-1-1.73,4.44,4.44,0,0,0-1.56-1.09,5.36,5.36,0,0,0-2.06-.38h-3v11h3a5.37,5.37,0,0,0,2.06-.37,4.44,4.44,0,0,0,1.56-1.09,4.9,4.9,0,0,0,1-1.73A7.3,7.3,0,0,0,291.82,137.91Z"/><path d="M302.6,135.68a5.51,5.51,0,0,1-.7-1.78,5,5,0,0,1,.6-3.56,5.47,5.47,0,0,1,1.29-1.49l.84.51a.36.36,0,0,1,.19.35.5.5,0,0,1-.14.32,3.33,3.33,0,0,0-.43.72,3.69,3.69,0,0,0-.29,1,3.92,3.92,0,0,0,0,1.18,3.3,3.3,0,0,0,.49,1.26.61.61,0,0,1,.1.55.55.55,0,0,1-.35.33Zm3.6,0a5.53,5.53,0,0,1-.71-1.78,5,5,0,0,1,.6-3.56,5.69,5.69,0,0,1,1.3-1.49l.83.51a.37.37,0,0,1,.2.35.56.56,0,0,1-.14.32,3,3,0,0,0-.44.72,3.69,3.69,0,0,0-.28,1,3.9,3.9,0,0,0,0,1.18,3.47,3.47,0,0,0,.49,1.26.62.62,0,0,1,.11.55.59.59,0,0,1-.36.33Z"/><path d="M310.5,138.09h5.6v2.23h-5.6Z"/><path d="M320.14,129a5.53,5.53,0,0,1,.71,1.78,5,5,0,0,1-.6,3.56,5.69,5.69,0,0,1-1.3,1.49l-.84-.51a.33.33,0,0,1-.15-.16.3.3,0,0,1,0-.18.58.58,0,0,1,0-.18.56.56,0,0,1,.1-.15,3,3,0,0,0,.44-.72,3.69,3.69,0,0,0,.28-1,3.61,3.61,0,0,0,0-1.18,3.47,3.47,0,0,0-.49-1.26.64.64,0,0,1-.1-.55.55.55,0,0,1,.35-.33Zm3.6,0a5.51,5.51,0,0,1,.7,1.78,5,5,0,0,1-.6,3.56,5.47,5.47,0,0,1-1.29,1.49l-.85-.51a.38.38,0,0,1-.15-.16.39.39,0,0,1,0-.18.61.61,0,0,1,.05-.18.4.4,0,0,1,.1-.15,3.33,3.33,0,0,0,.43-.72,3.69,3.69,0,0,0,.29-1,3.91,3.91,0,0,0,0-1.18,3.5,3.5,0,0,0-.5-1.26.68.68,0,0,1-.1-.55.57.57,0,0,1,.35-.33Z"/><rect class="cls-4" x="288.65" y="714.5" width="246" height="62"/><path d="M329.62,751.74H327a1.14,1.14,0,0,1-1.08-.58l-3.29-5a1.29,1.29,0,0,0-.41-.4,1.44,1.44,0,0,0-.66-.12h-1.24v6.12H317.4V736.09h4.77a10,10,0,0,1,2.74.33,5.36,5.36,0,0,1,1.87.92,3.67,3.67,0,0,1,1.08,1.43,4.68,4.68,0,0,1,.34,1.82,4.79,4.79,0,0,1-.23,1.49,4.46,4.46,0,0,1-.67,1.28,4.55,4.55,0,0,1-1.08,1,5.52,5.52,0,0,1-1.47.68,2.83,2.83,0,0,1,.52.39,2.48,2.48,0,0,1,.43.52Zm-7.49-8.2a4.35,4.35,0,0,0,1.43-.21,2.81,2.81,0,0,0,1-.57,2.32,2.32,0,0,0,.59-.86,3,3,0,0,0,.19-1.09,2.21,2.21,0,0,0-.78-1.83,3.72,3.72,0,0,0-2.4-.64h-1.86v5.2Z"/><path d="M334.24,738.4v4.34h5.48V745h-5.48v4.42h6.95v2.33h-9.87V736.09h9.87v2.31Z"/><path d="M360.75,736.09v15.65h-2.57V741.63a12.27,12.27,0,0,1,.07-1.31l-4.73,8.89a1.11,1.11,0,0,1-1,.64h-.41a1.09,1.09,0,0,1-1-.64l-4.79-8.92.06.7c0,.23,0,.44,0,.64v10.11h-2.57V736.09h2.53a.65.65,0,0,1,.47.19,1.06,1.06,0,0,1,.17.26l4.69,8.7a7.75,7.75,0,0,1,.34.71c.11.25.21.5.31.76.1-.27.21-.53.32-.78s.22-.48.34-.72l4.62-8.67a1.09,1.09,0,0,1,.19-.26.6.6,0,0,1,.21-.14.7.7,0,0,1,.25,0h2.54Z"/><path d="M379.16,743.91a9,9,0,0,1-.56,3.19,7.49,7.49,0,0,1-1.61,2.54,7.32,7.32,0,0,1-2.5,1.67,8.94,8.94,0,0,1-6.49,0,7.22,7.22,0,0,1-2.5-1.67,7.37,7.37,0,0,1-1.62-2.54,9,9,0,0,1,0-6.37,7.37,7.37,0,0,1,1.62-2.54,7.25,7.25,0,0,1,2.5-1.68,9.07,9.07,0,0,1,5.48-.32,7.65,7.65,0,0,1,1.93.78,6.9,6.9,0,0,1,1.57,1.22,7.54,7.54,0,0,1,1.19,1.61,8,8,0,0,1,.74,1.93A9.1,9.1,0,0,1,379.16,743.91Zm-3,0a7.23,7.23,0,0,0-.35-2.31,4.81,4.81,0,0,0-1-1.73,4.1,4.1,0,0,0-1.55-1.1,5.77,5.77,0,0,0-4.12,0,4.22,4.22,0,0,0-1.56,1.1,4.81,4.81,0,0,0-1,1.73,7.83,7.83,0,0,0,0,4.63,4.9,4.9,0,0,0,1,1.73,4.44,4.44,0,0,0,1.56,1.09,5.92,5.92,0,0,0,4.12,0,4.31,4.31,0,0,0,1.55-1.09,4.9,4.9,0,0,0,1-1.73A7.29,7.29,0,0,0,376.19,743.91Z"/><path d="M394.64,736.09l-6.33,15.65h-2.63l-6.32-15.65h2.34a1,1,0,0,1,.61.18,1.09,1.09,0,0,1,.36.48l3.69,9.55c.13.31.24.65.36,1s.21.76.32,1.16c.08-.4.18-.79.28-1.16a10.21,10.21,0,0,1,.33-1l3.67-9.55a1,1,0,0,1,.34-.46,1,1,0,0,1,.63-.2Z"/><path d="M399.18,738.4v4.34h5.48V745h-5.48v4.42h6.95v2.33h-9.87V736.09h9.87v2.31Z"/><path d="M414.34,751.74v-9.09l-1-.15a1.2,1.2,0,0,1-.51-.23.56.56,0,0,1-.19-.45v-1.09h1.66v-.36a5.15,5.15,0,0,1,.34-1.89,4.06,4.06,0,0,1,1-1.51,4.87,4.87,0,0,1,1.73-1,7.59,7.59,0,0,1,2.46-.36c.31,0,.62,0,.93,0a3.61,3.61,0,0,1,.82.16l-.09,1.38a.3.3,0,0,1-.27.3,3.53,3.53,0,0,1-.62,0,7.33,7.33,0,0,0-1.76.18,2.89,2.89,0,0,0-1.14.55,1.88,1.88,0,0,0-.63.91,3.77,3.77,0,0,0-.19,1.27v.27h6.88v11h-2.67v-9.1H417v9.1Z"/><path d="M429.08,742.56a4.69,4.69,0,0,1,1.23-1.56,2.64,2.64,0,0,1,1.69-.57,2.08,2.08,0,0,1,1.23.33l-.17,2a.5.5,0,0,1-.16.27.4.4,0,0,1-.27.08,2.58,2.58,0,0,1-.48,0,3.48,3.48,0,0,0-.63-.05,2.43,2.43,0,0,0-.79.12,2.07,2.07,0,0,0-.62.38,2.61,2.61,0,0,0-.49.59,5.29,5.29,0,0,0-.39.79v6.84h-2.68V740.63h1.57a.86.86,0,0,1,.58.15.87.87,0,0,1,.21.52Z"/><path d="M441.37,742.8a.65.65,0,0,1-.22.24.57.57,0,0,1-.31.07.82.82,0,0,1-.41-.11l-.52-.24a4.18,4.18,0,0,0-.66-.24,3.33,3.33,0,0,0-.89-.11,2.07,2.07,0,0,0-1.24.33,1.08,1.08,0,0,0-.44.88.81.81,0,0,0,.23.6,2,2,0,0,0,.62.43,6.12,6.12,0,0,0,.87.33c.32.1.65.2,1,.32s.66.25,1,.4a3.32,3.32,0,0,1,.87.56,2.46,2.46,0,0,1,.85,2,3.76,3.76,0,0,1-.29,1.48,3.15,3.15,0,0,1-.85,1.17,3.89,3.89,0,0,1-1.39.77,6.15,6.15,0,0,1-1.91.28,5.91,5.91,0,0,1-1.12-.11,7.37,7.37,0,0,1-1.05-.28,5.72,5.72,0,0,1-.93-.44,3.61,3.61,0,0,1-.75-.54l.61-1a1,1,0,0,1,.29-.28.8.8,0,0,1,.41-.1.92.92,0,0,1,.47.14l.51.31a4.46,4.46,0,0,0,.69.3,2.87,2.87,0,0,0,1,.14,2.81,2.81,0,0,0,.82-.11,1.85,1.85,0,0,0,.56-.3,1.06,1.06,0,0,0,.33-.43,1.44,1.44,0,0,0,.1-.5.93.93,0,0,0-.23-.64,2.07,2.07,0,0,0-.62-.43,4.75,4.75,0,0,0-.88-.33l-1-.32a9.55,9.55,0,0,1-1-.41A3.31,3.31,0,0,1,435,746a2.75,2.75,0,0,1-.62-.87,3.41,3.41,0,0,1,0-2.56,3.11,3.11,0,0,1,.8-1.08,3.92,3.92,0,0,1,1.31-.73,5.29,5.29,0,0,1,1.81-.28,5.6,5.6,0,0,1,2.09.38,4.68,4.68,0,0,1,1.57,1Z"/><path d="M447.82,751.92a3,3,0,0,1-2.23-.82,3.19,3.19,0,0,1-.77-2.26v-6.2h-1.14a.55.55,0,0,1-.37-.14.58.58,0,0,1-.15-.43V741l1.79-.29.56-3a.57.57,0,0,1,.21-.34.61.61,0,0,1,.39-.12h1.38v3.5h3v1.91h-3v6a1.21,1.21,0,0,0,.26.81.88.88,0,0,0,.69.29,1.25,1.25,0,0,0,.42-.06l.29-.12.23-.13a.33.33,0,0,1,.19-.06.34.34,0,0,1,.2.06,1,1,0,0,1,.16.18l.8,1.3a4.27,4.27,0,0,1-1.34.74A5.21,5.21,0,0,1,447.82,751.92Z"/><path d="M460.14,735.65v16.09h-2.68V735.65Z"/><path d="M464.87,746.52a5.09,5.09,0,0,0,.3,1.48,3,3,0,0,0,.63,1,2.55,2.55,0,0,0,.93.61,3.77,3.77,0,0,0,2.3,0,5,5,0,0,0,.82-.33c.24-.12.44-.24.62-.34a1.06,1.06,0,0,1,.52-.15.55.55,0,0,1,.49.25l.77,1a4.57,4.57,0,0,1-1,.88,5.9,5.9,0,0,1-1.16.56,6.59,6.59,0,0,1-1.22.3,8.47,8.47,0,0,1-1.21.08,5.82,5.82,0,0,1-2.15-.38,4.83,4.83,0,0,1-1.73-1.14,5.16,5.16,0,0,1-1.16-1.86,7.24,7.24,0,0,1-.43-2.57,6.29,6.29,0,0,1,.37-2.14,5.12,5.12,0,0,1,1.06-1.74,5,5,0,0,1,1.68-1.18,5.48,5.48,0,0,1,2.23-.43,5.31,5.31,0,0,1,1.94.34,4.23,4.23,0,0,1,1.53,1,4.54,4.54,0,0,1,1,1.58,5.87,5.87,0,0,1,.36,2.13,1.69,1.69,0,0,1-.13.82.54.54,0,0,1-.5.21Zm5.1-1.61a3.14,3.14,0,0,0-.15-1,2.27,2.27,0,0,0-.44-.81,2,2,0,0,0-.74-.54,2.44,2.44,0,0,0-1-.2,2.49,2.49,0,0,0-1.83.66,3.23,3.23,0,0,0-.85,1.87Z"/><path d="M478,751.92a3,3,0,0,1-2.23-.82,3.19,3.19,0,0,1-.77-2.26v-6.2h-1.14a.57.57,0,0,1-.37-.14.58.58,0,0,1-.15-.43V741l1.79-.29.56-3a.62.62,0,0,1,.21-.34.61.61,0,0,1,.39-.12h1.38v3.5h4.63l.57-3a.61.61,0,0,1,.2-.34.62.62,0,0,1,.4-.12h1.37v3.5h3v1.91h-3v6a1.21,1.21,0,0,0,.26.81.9.9,0,0,0,.7.29,1.33,1.33,0,0,0,.42-.06l.29-.12.23-.13a.35.35,0,0,1,.19-.06.32.32,0,0,1,.2.06,1,1,0,0,1,.16.18l.8,1.3a4.27,4.27,0,0,1-1.34.74,5.21,5.21,0,0,1-1.57.25,3,3,0,0,1-2.23-.82,3.15,3.15,0,0,1-.78-2.26v-6.2h-4.5v6a1.21,1.21,0,0,0,.26.81.89.89,0,0,0,.7.29,1.22,1.22,0,0,0,.41-.06l.3-.12.22-.13a.35.35,0,0,1,.19-.06.32.32,0,0,1,.2.06,1,1,0,0,1,.16.18l.8,1.3a4.27,4.27,0,0,1-1.34.74A5.21,5.21,0,0,1,478,751.92Z"/><path d="M491.46,746.52a5.09,5.09,0,0,0,.3,1.48,3,3,0,0,0,.63,1,2.55,2.55,0,0,0,.93.61,3.77,3.77,0,0,0,2.3,0,5,5,0,0,0,.82-.33c.24-.12.44-.24.62-.34a1.06,1.06,0,0,1,.52-.15.55.55,0,0,1,.49.25l.77,1a4.57,4.57,0,0,1-1,.88,5.9,5.9,0,0,1-1.16.56,6.59,6.59,0,0,1-1.22.3,8.47,8.47,0,0,1-1.21.08,5.82,5.82,0,0,1-2.15-.38,4.83,4.83,0,0,1-1.73-1.14,5.16,5.16,0,0,1-1.16-1.86,7.24,7.24,0,0,1-.43-2.57,6.29,6.29,0,0,1,.37-2.14,5.12,5.12,0,0,1,1.06-1.74,5,5,0,0,1,1.68-1.18,5.48,5.48,0,0,1,2.23-.43,5.31,5.31,0,0,1,1.94.34,4.23,4.23,0,0,1,1.53,1,4.54,4.54,0,0,1,1,1.58,5.87,5.87,0,0,1,.36,2.13,1.69,1.69,0,0,1-.13.82.53.53,0,0,1-.5.21Zm5.1-1.61a3.14,3.14,0,0,0-.15-1,2.27,2.27,0,0,0-.44-.81,2,2,0,0,0-.74-.54,2.44,2.44,0,0,0-1-.2,2.49,2.49,0,0,0-1.83.66,3.29,3.29,0,0,0-.85,1.87Z"/><path d="M503.49,742.56a4.81,4.81,0,0,1,1.23-1.56,2.64,2.64,0,0,1,1.69-.57,2.08,2.08,0,0,1,1.23.33l-.17,2a.45.45,0,0,1-.16.27.38.38,0,0,1-.27.08,2.58,2.58,0,0,1-.48,0,3.41,3.41,0,0,0-.63-.05,2.43,2.43,0,0,0-.79.12,2.2,2.2,0,0,0-.62.38,2.61,2.61,0,0,0-.49.59,5.29,5.29,0,0,0-.39.79v6.84H501V740.63h1.57a.86.86,0,0,1,.58.15.81.81,0,0,1,.21.52Z"/><rect class="cls-4" x="288.67" y="508.75" width="246" height="62"/><path d="M332.82,546h-2.25a.91.91,0,0,1-.61-.19,1.12,1.12,0,0,1-.36-.47l-1.17-3.19h-6.49l-1.17,3.19a1,1,0,0,1-.33.46,1,1,0,0,1-.62.2h-2.27l6.16-15.65h3Zm-5.14-5.91-1.9-5.21a8.18,8.18,0,0,1-.3-.82c-.1-.32-.2-.66-.3-1-.09.37-.19.71-.29,1s-.2.61-.29.84l-1.9,5.19Z"/><path d="M339.54,530.34a9.08,9.08,0,0,1,2.71.36,5.31,5.31,0,0,1,1.9,1,4.06,4.06,0,0,1,1.11,1.58,5.54,5.54,0,0,1,.36,2,5.62,5.62,0,0,1-.38,2.08,4.31,4.31,0,0,1-1.13,1.63,5.22,5.22,0,0,1-1.9,1.06,8.64,8.64,0,0,1-2.67.38h-2.18V546h-2.91V530.34Zm0,7.87a4.43,4.43,0,0,0,1.39-.2,2.68,2.68,0,0,0,1-.58,2.24,2.24,0,0,0,.59-.91,3.41,3.41,0,0,0,.2-1.19,3.17,3.17,0,0,0-.2-1.14,2.26,2.26,0,0,0-.58-.87,2.62,2.62,0,0,0-1-.54,4.47,4.47,0,0,0-1.4-.19h-2.18v5.62Z"/><path d="M352.94,530.34a9.15,9.15,0,0,1,2.72.36,5.35,5.35,0,0,1,1.89,1,4.06,4.06,0,0,1,1.11,1.58,5.54,5.54,0,0,1,.36,2,5.62,5.62,0,0,1-.37,2.08,4.45,4.45,0,0,1-1.14,1.63,5.22,5.22,0,0,1-1.9,1.06,8.55,8.55,0,0,1-2.67.38h-2.18V546h-2.91V530.34Zm0,7.87a4.54,4.54,0,0,0,1.4-.2,2.85,2.85,0,0,0,1-.58,2.35,2.35,0,0,0,.59-.91,3.42,3.42,0,0,0,.19-1.19,3.17,3.17,0,0,0-.19-1.14,2.28,2.28,0,0,0-.59-.87,2.65,2.65,0,0,0-1-.54,4.58,4.58,0,0,0-1.41-.19h-2.18v5.62Z"/><path d="M364.18,532.65V537h5.48v2.25h-5.48v4.42h6.95V546h-9.88V530.34h9.88v2.31Z"/><path d="M386.9,530.34V546h-1.49a1.43,1.43,0,0,1-.58-.11,1.34,1.34,0,0,1-.45-.39l-8.17-10.43q.06.71.06,1.32V546h-2.56V530.34h1.84a.61.61,0,0,1,.24.07.81.81,0,0,1,.2.14,1.79,1.79,0,0,1,.22.24l8.2,10.48c0-.25,0-.5-.05-.74s0-.48,0-.69v-9.51Z"/><path d="M404.29,538.16a8.55,8.55,0,0,1-.57,3.17,7.22,7.22,0,0,1-1.62,2.47,7,7,0,0,1-2.5,1.62,8.83,8.83,0,0,1-3.25.57h-6V530.34h6a8.63,8.63,0,0,1,3.25.58,7.13,7.13,0,0,1,2.5,1.61,7.22,7.22,0,0,1,1.62,2.47A8.54,8.54,0,0,1,404.29,538.16Zm-3,0a7.24,7.24,0,0,0-.34-2.31,4.8,4.8,0,0,0-1-1.73,4.44,4.44,0,0,0-1.56-1.09,5.42,5.42,0,0,0-2.07-.38h-3v11h3a5.42,5.42,0,0,0,2.07-.37,4.44,4.44,0,0,0,1.56-1.09,4.88,4.88,0,0,0,1-1.73A7.3,7.3,0,0,0,401.3,538.16Z"/><path d="M412.49,546V536.9l-1-.15a1.16,1.16,0,0,1-.5-.23.53.53,0,0,1-.19-.45V535h1.66v-.36a5.37,5.37,0,0,1,.33-1.89,4.21,4.21,0,0,1,1-1.51,4.78,4.78,0,0,1,1.73-1,7.51,7.51,0,0,1,2.46-.36c.3,0,.61,0,.93,0a3.52,3.52,0,0,1,.81.16l-.08,1.38a.31.31,0,0,1-.27.3,3.61,3.61,0,0,1-.62,0A7.27,7.27,0,0,0,417,532a2.94,2.94,0,0,0-1.15.55,2,2,0,0,0-.63.91,4,4,0,0,0-.19,1.27V535H422v11h-2.67v-9.1h-4.13V546Z"/><path d="M427.22,536.81a4.73,4.73,0,0,1,1.24-1.56,2.62,2.62,0,0,1,1.69-.57,2.08,2.08,0,0,1,1.23.33l-.17,2a.5.5,0,0,1-.16.27.41.41,0,0,1-.28.08,2.66,2.66,0,0,1-.48,0,3.31,3.31,0,0,0-.62-.05,2.39,2.39,0,0,0-.79.12,2.07,2.07,0,0,0-.62.38,2.37,2.37,0,0,0-.49.59,6.44,6.44,0,0,0-.4.79V546H424.7V534.88h1.57a.85.85,0,0,1,.57.15.87.87,0,0,1,.22.52Z"/><path d="M439.52,537.05a.67.67,0,0,1-.23.24.56.56,0,0,1-.3.07.88.88,0,0,1-.42-.11l-.51-.24a4.73,4.73,0,0,0-.67-.24,3.2,3.2,0,0,0-.88-.11,2.05,2.05,0,0,0-1.24.33,1.06,1.06,0,0,0-.45.88.81.81,0,0,0,.24.6,2.07,2.07,0,0,0,.61.43,7.22,7.22,0,0,0,.87.33c.33.1.66.2,1,.32s.67.25,1,.4a3.32,3.32,0,0,1,.87.56,2.62,2.62,0,0,1,.61.82,2.49,2.49,0,0,1,.24,1.14A3.76,3.76,0,0,1,440,544a3.15,3.15,0,0,1-.85,1.17,4,4,0,0,1-1.39.77,6.15,6.15,0,0,1-1.91.28,5.91,5.91,0,0,1-1.12-.11,6.72,6.72,0,0,1-1.05-.28,5.72,5.72,0,0,1-.93-.44,4,4,0,0,1-.76-.54l.62-1a.93.93,0,0,1,.28-.28.87.87,0,0,1,.88,0c.15.1.32.2.52.31a3.75,3.75,0,0,0,.69.3,2.83,2.83,0,0,0,1,.14,2.69,2.69,0,0,0,.81-.11,1.91,1.91,0,0,0,.57-.3,1,1,0,0,0,.32-.43,1.25,1.25,0,0,0,.11-.5.89.89,0,0,0-.24-.64,1.9,1.9,0,0,0-.61-.43,4.75,4.75,0,0,0-.88-.33l-1-.32a9.71,9.71,0,0,1-1-.41,3.26,3.26,0,0,1-.87-.59,2.75,2.75,0,0,1-.62-.87,3.41,3.41,0,0,1,0-2.56,3.08,3.08,0,0,1,.79-1.08,4,4,0,0,1,1.31-.73,5.35,5.35,0,0,1,1.82-.28,5.63,5.63,0,0,1,2.09.38,4.68,4.68,0,0,1,1.57,1Z"/><path d="M446,546.17a2.93,2.93,0,0,1-2.22-.82,3.15,3.15,0,0,1-.78-2.26v-6.2h-1.13a.53.53,0,0,1-.37-.14.58.58,0,0,1-.15-.43v-1.06l1.78-.29.57-3a.56.56,0,0,1,.2-.34.61.61,0,0,1,.39-.12h1.39V535h3v1.91h-3v6a1.21,1.21,0,0,0,.25.81.89.89,0,0,0,.7.29A1.25,1.25,0,0,0,447,544l.29-.12.22-.13a.39.39,0,0,1,.2-.06.29.29,0,0,1,.19.06.73.73,0,0,1,.16.18l.81,1.3a4.21,4.21,0,0,1-1.35.74A5.16,5.16,0,0,1,446,546.17Z"/><path d="M458.28,529.9V546h-2.67V529.9Z"/><path d="M463,540.77a5.43,5.43,0,0,0,.31,1.48,3,3,0,0,0,.63,1,2.51,2.51,0,0,0,.92.61,3.81,3.81,0,0,0,2.31,0,5.37,5.37,0,0,0,.82-.33l.62-.34a1,1,0,0,1,.51-.15.57.57,0,0,1,.5.25l.77,1a4.61,4.61,0,0,1-1,.88,5.82,5.82,0,0,1-1.15.56,6.59,6.59,0,0,1-1.22.3,10.24,10.24,0,0,1-1.21.08,5.91,5.91,0,0,1-2.16-.38,4.92,4.92,0,0,1-1.73-1.14,5.45,5.45,0,0,1-1.16-1.86,7.25,7.25,0,0,1-.42-2.57,6.06,6.06,0,0,1,.37-2.14,5.1,5.1,0,0,1,1-1.74,5,5,0,0,1,1.68-1.18,5.53,5.53,0,0,1,2.24-.43,5.31,5.31,0,0,1,1.94.34,4.11,4.11,0,0,1,1.52,1,4.4,4.4,0,0,1,1,1.58,5.66,5.66,0,0,1,.37,2.13,1.82,1.82,0,0,1-.13.82.54.54,0,0,1-.5.21Zm5.1-1.61a3.14,3.14,0,0,0-.14-1,2.44,2.44,0,0,0-.44-.81,2,2,0,0,0-.74-.54,2.85,2.85,0,0,0-2.87.46,3.17,3.17,0,0,0-.85,1.87Z"/><path d="M476.12,546.17a3,3,0,0,1-2.23-.82,3.15,3.15,0,0,1-.77-2.26v-6.2H472a.53.53,0,0,1-.37-.14.58.58,0,0,1-.15-.43v-1.06l1.79-.29.56-3a.57.57,0,0,1,.21-.34.6.6,0,0,1,.38-.12h1.39V535h4.62l.58-3a.56.56,0,0,1,.2-.34.61.61,0,0,1,.39-.12H483V535h3v1.91h-3v6a1.16,1.16,0,0,0,.26.81.9.9,0,0,0,.7.29,1.22,1.22,0,0,0,.41-.06l.3-.12.22-.13a.39.39,0,0,1,.2-.06.29.29,0,0,1,.19.06.73.73,0,0,1,.16.18l.81,1.3a4.21,4.21,0,0,1-1.35.74,5.16,5.16,0,0,1-1.57.25,3,3,0,0,1-2.23-.82,3.15,3.15,0,0,1-.78-2.26v-6.2h-4.49v6a1.26,1.26,0,0,0,.25.81.9.9,0,0,0,.7.29,1.25,1.25,0,0,0,.42-.06l.29-.12.22-.13a.39.39,0,0,1,.2-.06.29.29,0,0,1,.19.06,1,1,0,0,1,.17.18l.8,1.3a4.27,4.27,0,0,1-1.34.74A5.21,5.21,0,0,1,476.12,546.17Z"/><path d="M489.61,540.77a5.09,5.09,0,0,0,.3,1.48,3,3,0,0,0,.63,1,2.51,2.51,0,0,0,.92.61,3.81,3.81,0,0,0,2.31,0,5.37,5.37,0,0,0,.82-.33c.24-.12.44-.24.62-.34a1.06,1.06,0,0,1,.51-.15.57.57,0,0,1,.5.25l.77,1a4.61,4.61,0,0,1-1,.88,5.82,5.82,0,0,1-1.15.56,6.59,6.59,0,0,1-1.22.3,10.24,10.24,0,0,1-1.21.08,5.91,5.91,0,0,1-2.16-.38,4.92,4.92,0,0,1-1.73-1.14,5.45,5.45,0,0,1-1.16-1.86,7.25,7.25,0,0,1-.42-2.57,6.06,6.06,0,0,1,.37-2.14,5.12,5.12,0,0,1,1.06-1.74,4.82,4.82,0,0,1,1.67-1.18,5.53,5.53,0,0,1,2.24-.43,5.31,5.31,0,0,1,1.94.34,4.11,4.11,0,0,1,1.52,1,4.56,4.56,0,0,1,1,1.58,5.87,5.87,0,0,1,.36,2.13,1.69,1.69,0,0,1-.13.82.54.54,0,0,1-.5.21Zm5.1-1.61a3.14,3.14,0,0,0-.15-1,2.27,2.27,0,0,0-.44-.81,2,2,0,0,0-.74-.54,2.85,2.85,0,0,0-2.87.46,3.23,3.23,0,0,0-.85,1.87Z"/><path d="M501.63,536.81a4.73,4.73,0,0,1,1.24-1.56,2.62,2.62,0,0,1,1.69-.57,2.08,2.08,0,0,1,1.23.33l-.17,2a.5.5,0,0,1-.16.27.4.4,0,0,1-.27.08,2.75,2.75,0,0,1-.49,0,3.31,3.31,0,0,0-.62-.05,2.39,2.39,0,0,0-.79.12,2.07,2.07,0,0,0-.62.38,2.37,2.37,0,0,0-.49.59,5.29,5.29,0,0,0-.39.79V546h-2.68V534.88h1.57a.65.65,0,0,1,.79.67Z"/><rect class="cls-4" x="288.65" y="612.5" width="246" height="62"/><path d="M361.36,649.74h-2.25a.94.94,0,0,1-.62-.19,1.12,1.12,0,0,1-.36-.47L357,645.89h-6.48l-1.17,3.19a1,1,0,0,1-.34.46,1,1,0,0,1-.61.2h-2.28l6.16-15.65h3Zm-5.14-5.91-1.91-5.21c-.09-.23-.19-.5-.29-.82s-.2-.66-.3-1c-.1.37-.2.71-.3,1a8,8,0,0,1-.29.84l-1.89,5.19Z"/><path d="M368.07,634.09a9.15,9.15,0,0,1,2.72.36,5.26,5.26,0,0,1,1.89,1,4.06,4.06,0,0,1,1.11,1.58,5.34,5.34,0,0,1,.37,2,5.62,5.62,0,0,1-.38,2.08,4.34,4.34,0,0,1-1.14,1.63,5.14,5.14,0,0,1-1.9,1.06,8.55,8.55,0,0,1-2.67.38H365.9v5.51H363V634.09Zm0,7.87a4.5,4.5,0,0,0,1.4-.2,2.68,2.68,0,0,0,1-.58,2.35,2.35,0,0,0,.59-.91,3.42,3.42,0,0,0,.19-1.19,3.17,3.17,0,0,0-.19-1.14,2.28,2.28,0,0,0-.59-.87,2.5,2.5,0,0,0-1-.54,4.58,4.58,0,0,0-1.41-.19H365.9V642Z"/><path d="M381.48,634.09a9.08,9.08,0,0,1,2.71.36,5.31,5.31,0,0,1,1.9,1,4.06,4.06,0,0,1,1.11,1.58,5.54,5.54,0,0,1,.36,2,5.62,5.62,0,0,1-.38,2.08,4.23,4.23,0,0,1-1.14,1.63,5.06,5.06,0,0,1-1.9,1.06,8.53,8.53,0,0,1-2.66.38H379.3v5.51h-2.91V634.09Zm0,7.87a4.43,4.43,0,0,0,1.39-.2,2.68,2.68,0,0,0,1-.58,2.24,2.24,0,0,0,.59-.91,3.41,3.41,0,0,0,.2-1.19,3.17,3.17,0,0,0-.2-1.14,2.26,2.26,0,0,0-.58-.87,2.62,2.62,0,0,0-1-.54,4.47,4.47,0,0,0-1.4-.19H379.3V642Z"/><path d="M392.71,636.4v4.34h5.48V643h-5.48v4.42h7v2.33h-9.87V634.09h9.87v2.31Z"/><path d="M415.44,634.09v15.65h-1.5a1.14,1.14,0,0,1-1-.5l-8.18-10.43a12.45,12.45,0,0,1,.07,1.32v9.61h-2.57V634.09h1.85a.61.61,0,0,1,.24.07,1.05,1.05,0,0,1,.2.14l.21.24L413,645c0-.25,0-.5-.05-.74s0-.48,0-.69v-9.51Z"/><path d="M432.83,641.91a8.36,8.36,0,0,1-.58,3.17,7.19,7.19,0,0,1-1.61,2.47,7.11,7.11,0,0,1-2.5,1.62,8.91,8.91,0,0,1-3.25.57h-6V634.09h6a8.7,8.7,0,0,1,3.25.58,7.09,7.09,0,0,1,4.11,4.08A8.34,8.34,0,0,1,432.83,641.91Zm-3,0a7.24,7.24,0,0,0-.34-2.31,4.81,4.81,0,0,0-1-1.73,4.44,4.44,0,0,0-1.56-1.09,5.36,5.36,0,0,0-2.06-.38h-3v11h3a5.37,5.37,0,0,0,2.06-.37,4.44,4.44,0,0,0,1.56-1.09,4.9,4.9,0,0,0,1-1.73A7.3,7.3,0,0,0,429.84,641.91Z"/><path d="M440.62,639.68a5.51,5.51,0,0,1-.7-1.78,4.9,4.9,0,0,1,0-1.83,5.09,5.09,0,0,1,.63-1.73,5.47,5.47,0,0,1,1.29-1.49l.84.51a.36.36,0,0,1,.19.35.5.5,0,0,1-.14.32,3,3,0,0,0-.43.72,3.36,3.36,0,0,0-.29,1,3.92,3.92,0,0,0,0,1.18,3.27,3.27,0,0,0,.48,1.26.62.62,0,0,1,.11.55.57.57,0,0,1-.36.33Zm3.6,0a5.53,5.53,0,0,1-.71-1.78,5,5,0,0,1,.6-3.56,5.52,5.52,0,0,1,1.3-1.49l.83.51a.37.37,0,0,1,.2.35.56.56,0,0,1-.15.32,3.56,3.56,0,0,0-.71,1.71,3.9,3.9,0,0,0,0,1.18,3.47,3.47,0,0,0,.49,1.26.65.65,0,0,1,.11.55.59.59,0,0,1-.36.33Z"/><path d="M447.91,640.18a6.58,6.58,0,0,1,4.61-1.75,4.35,4.35,0,0,1,1.74.32,3.65,3.65,0,0,1,1.3.88,3.73,3.73,0,0,1,.81,1.36,5.38,5.38,0,0,1,.28,1.74v7h-1.22a1.3,1.3,0,0,1-.58-.11.8.8,0,0,1-.33-.46l-.23-.8c-.29.25-.56.47-.83.66a4.57,4.57,0,0,1-1.76.78,5.22,5.22,0,0,1-1.09.11,4.42,4.42,0,0,1-1.29-.19,3,3,0,0,1-1-.57,2.49,2.49,0,0,1-.67-.95,3.28,3.28,0,0,1-.24-1.3,2.5,2.5,0,0,1,.6-1.64,3.72,3.72,0,0,1,.83-.71,5.2,5.2,0,0,1,1.25-.59,10.9,10.9,0,0,1,1.72-.41,18,18,0,0,1,2.26-.18v-.65a2.44,2.44,0,0,0-.48-1.66,1.78,1.78,0,0,0-1.38-.53,3.24,3.24,0,0,0-1.07.15,4.93,4.93,0,0,0-.76.34l-.58.34a1.21,1.21,0,0,1-.6.15.75.75,0,0,1-.47-.14,1.29,1.29,0,0,1-.32-.34ZM454,645a14.73,14.73,0,0,0-2,.2,5.42,5.42,0,0,0-1.27.37,1.66,1.66,0,0,0-.68.53,1.17,1.17,0,0,0-.21.66,1.16,1.16,0,0,0,.42,1,1.83,1.83,0,0,0,1.09.3,3.27,3.27,0,0,0,1.42-.29,4.31,4.31,0,0,0,1.18-.91Z"/><path d="M468.93,638.63l-6.05,14.16a1,1,0,0,1-.31.43.92.92,0,0,1-.58.15h-2l2.08-4.46-4.49-10.28h2.35a.69.69,0,0,1,.49.16.84.84,0,0,1,.26.34l2.37,5.76c.07.2.14.39.2.59l.15.59c.07-.2.13-.4.2-.6s.13-.39.21-.59l2.23-5.75a.91.91,0,0,1,.29-.36.77.77,0,0,1,.45-.14Z"/><path d="M472.08,633a5.32,5.32,0,0,1,.71,1.78,5,5,0,0,1-.6,3.56,5.35,5.35,0,0,1-1.3,1.49l-.84-.51a.38.38,0,0,1-.15-.16.39.39,0,0,1,0-.18.58.58,0,0,1,0-.18.42.42,0,0,1,.11-.15,3.33,3.33,0,0,0,.43-.72,3.69,3.69,0,0,0,.29-1,3.92,3.92,0,0,0,0-1.18,3.3,3.3,0,0,0-.49-1.26.64.64,0,0,1-.1-.55.55.55,0,0,1,.35-.33Zm3.6,0a5.29,5.29,0,0,1,.7,1.78,4.9,4.9,0,0,1,0,1.83,5.33,5.33,0,0,1-.64,1.73,5.47,5.47,0,0,1-1.29,1.49l-.85-.51a.38.38,0,0,1-.15-.16.39.39,0,0,1,0-.18.61.61,0,0,1,.05-.18.4.4,0,0,1,.1-.15A3,3,0,0,0,474,638a3.36,3.36,0,0,0,.29-1,3.91,3.91,0,0,0,0-1.18,3.47,3.47,0,0,0-.49-1.26.65.65,0,0,1-.11-.55.57.57,0,0,1,.36-.33Z"/><line class="cls-1" x1="411.65" y1="574" x2="411.65" y2="597.67"/><polygon class="cls-2" points="402.76 590.93 411.65 594.71 420.54 590.93 411.65 612 402.76 590.93"/><line class="cls-1" x1="411.65" y1="676" x2="411.65" y2="699.67"/><polygon class="cls-2" points="402.76 692.93 411.65 696.71 420.54 692.93 411.65 714 402.76 692.93"/><line class="cls-1" x1="266.65" y1="69" x2="266.65" y2="92.67"/><polygon class="cls-2" points="257.76 85.93 266.65 89.71 275.54 85.93 266.65 107 257.76 85.93"/><path d="M248.14,892.79v4.34h5.47v2.25h-5.47v4.42h7v2.33h-9.88V890.48h9.88v2.31Z"/><path d="M270.86,890.48v15.65h-1.49a1.39,1.39,0,0,1-.58-.11,1.34,1.34,0,0,1-.45-.39l-8.18-10.43a12.45,12.45,0,0,1,.07,1.32v9.61h-2.57V890.48h1.85a.61.61,0,0,1,.24.07.81.81,0,0,1,.2.14l.21.24,8.21,10.48c0-.25,0-.5-.05-.75s0-.47,0-.68v-9.51Z"/><path d="M288.25,898.3a8.31,8.31,0,0,1-.58,3.16,7.12,7.12,0,0,1-4.11,4.1,8.87,8.87,0,0,1-3.25.57h-6V890.48h6a8.87,8.87,0,0,1,3.25.57,7.39,7.39,0,0,1,2.5,1.62,7.19,7.19,0,0,1,1.61,2.47A8.34,8.34,0,0,1,288.25,898.3Zm-3,0a7.24,7.24,0,0,0-.34-2.31,4.81,4.81,0,0,0-1-1.73,4.31,4.31,0,0,0-1.56-1.09,5.36,5.36,0,0,0-2.06-.38h-3v11h3a5.37,5.37,0,0,0,2.06-.37,4.44,4.44,0,0,0,1.56-1.09,4.81,4.81,0,0,0,1-1.73A7.3,7.3,0,0,0,285.26,898.3Z"/><ellipse class="cls-3" cx="266.27" cy="898.5" rx="103" ry="31.5"/><rect class="cls-4" x="143.65" y="211.5" width="246" height="62"/><path d="M182.73,235.93a1,1,0,0,1-.28.33.61.61,0,0,1-.36.11,1,1,0,0,1-.5-.17c-.17-.11-.38-.24-.63-.37a4.62,4.62,0,0,0-.86-.38,3.68,3.68,0,0,0-1.16-.17,3.35,3.35,0,0,0-1.06.15,2.17,2.17,0,0,0-.77.41,1.65,1.65,0,0,0-.46.62,2.06,2.06,0,0,0-.15.79,1.35,1.35,0,0,0,.31.92,2.52,2.52,0,0,0,.82.63,7,7,0,0,0,1.16.47l1.33.44a10.89,10.89,0,0,1,1.33.54,4.38,4.38,0,0,1,1.16.78,3.42,3.42,0,0,1,.81,1.15,3.94,3.94,0,0,1,.31,1.66,5.4,5.4,0,0,1-.36,2,4.65,4.65,0,0,1-1.06,1.62,4.9,4.9,0,0,1-1.71,1.08,6.33,6.33,0,0,1-2.3.4,7.19,7.19,0,0,1-1.47-.15,8.1,8.1,0,0,1-1.4-.42,7.05,7.05,0,0,1-1.25-.65,6.16,6.16,0,0,1-1-.84l.86-1.4a1,1,0,0,1,.28-.25.72.72,0,0,1,.37-.11,1,1,0,0,1,.58.23l.75.49a6.34,6.34,0,0,0,1,.49,3.86,3.86,0,0,0,1.39.22,2.82,2.82,0,0,0,1.93-.59,2.1,2.1,0,0,0,.68-1.69,1.62,1.62,0,0,0-.3-1,2.44,2.44,0,0,0-.82-.65,5.84,5.84,0,0,0-1.16-.45l-1.32-.4a12.47,12.47,0,0,1-1.32-.52,4.25,4.25,0,0,1-1.16-.79,3.69,3.69,0,0,1-.82-1.22,4.76,4.76,0,0,1-.31-1.8,4.41,4.41,0,0,1,.34-1.67,4.3,4.3,0,0,1,1-1.44,4.71,4.71,0,0,1,1.6-1,5.89,5.89,0,0,1,2.18-.38,7.28,7.28,0,0,1,2.56.44,5.63,5.63,0,0,1,2,1.21Z"/><path d="M197.2,235.48h-4.72v13.26h-2.91V235.48h-4.72v-2.39H197.2Z"/><path d="M213.67,240.91a8.74,8.74,0,0,1-.57,3.19,7.34,7.34,0,0,1-1.61,2.54,7.13,7.13,0,0,1-2.5,1.67,8.91,8.91,0,0,1-6.48,0,7.27,7.27,0,0,1-2.51-1.67,7.37,7.37,0,0,1-1.62-2.54,9.18,9.18,0,0,1,0-6.37,7.37,7.37,0,0,1,1.62-2.54,7.29,7.29,0,0,1,2.51-1.68,8.41,8.41,0,0,1,3.23-.6,8.56,8.56,0,0,1,2.25.28,7.44,7.44,0,0,1,1.92.78,7,7,0,0,1,1.58,1.22,7.5,7.5,0,0,1,1.18,1.61,7.6,7.6,0,0,1,.75,1.93A9.64,9.64,0,0,1,213.67,240.91Zm-3,0a7.24,7.24,0,0,0-.34-2.31,5,5,0,0,0-1-1.73,4.18,4.18,0,0,0-1.55-1.1,5.8,5.8,0,0,0-4.13,0,4.22,4.22,0,0,0-1.56,1.1,4.81,4.81,0,0,0-1,1.73,8.05,8.05,0,0,0,0,4.63,4.9,4.9,0,0,0,1,1.73,4.44,4.44,0,0,0,1.56,1.09,5.95,5.95,0,0,0,4.13,0,4.4,4.4,0,0,0,1.55-1.09,5.06,5.06,0,0,0,1-1.73A7.3,7.3,0,0,0,210.69,240.91Z"/><path d="M228.46,248.74h-2.63a1.14,1.14,0,0,1-1.08-.58l-3.3-5a1.17,1.17,0,0,0-.4-.4,1.44,1.44,0,0,0-.66-.12h-1.24v6.12h-2.91V233.09H221a9.9,9.9,0,0,1,2.73.33,5.33,5.33,0,0,1,1.88.92,3.65,3.65,0,0,1,1.07,1.43,4.69,4.69,0,0,1,.35,1.82,4.79,4.79,0,0,1-.23,1.49,4.46,4.46,0,0,1-.67,1.28,4.8,4.8,0,0,1-1.09,1,5.45,5.45,0,0,1-1.46.68,3.21,3.21,0,0,1,.52.39,2.48,2.48,0,0,1,.43.52Zm-7.49-8.2a4.4,4.4,0,0,0,1.43-.21,2.9,2.9,0,0,0,1-.57,2.32,2.32,0,0,0,.59-.86,3,3,0,0,0,.19-1.09,2.21,2.21,0,0,0-.78-1.83,3.74,3.74,0,0,0-2.4-.64h-1.86v5.2Z"/><path d="M233.08,235.4v4.34h5.48V242h-5.48v4.42H240v2.33h-9.87V233.09H240v2.31Z"/><path d="M248.24,248.74v-9.09l-1-.15a1.2,1.2,0,0,1-.51-.23.56.56,0,0,1-.19-.45v-1.09h1.66v-.36a5.37,5.37,0,0,1,.33-1.89,4.21,4.21,0,0,1,1-1.51,4.87,4.87,0,0,1,1.73-1,7.59,7.59,0,0,1,2.46-.36c.31,0,.61,0,.93,0a3.73,3.73,0,0,1,.82.16l-.09,1.38a.31.31,0,0,1-.27.3,3.53,3.53,0,0,1-.62.05,7.27,7.27,0,0,0-1.76.18,3,3,0,0,0-1.15.55,1.93,1.93,0,0,0-.62.91,3.77,3.77,0,0,0-.19,1.27v.27h6.88v11H255v-9.1h-4.13v9.1Z"/><path d="M263,239.56a4.84,4.84,0,0,1,1.24-1.56,2.64,2.64,0,0,1,1.69-.57,2.08,2.08,0,0,1,1.23.33l-.17,2a.5.5,0,0,1-.16.27.4.4,0,0,1-.27.08,2.75,2.75,0,0,1-.49-.05,3.31,3.31,0,0,0-.62,0,2.39,2.39,0,0,0-.79.12,2.07,2.07,0,0,0-.62.38,2.37,2.37,0,0,0-.49.59,5.29,5.29,0,0,0-.39.79v6.84h-2.68V237.63H262a.86.86,0,0,1,.58.15.87.87,0,0,1,.21.52Z"/><path d="M275.27,239.8a.65.65,0,0,1-.22.24.57.57,0,0,1-.31.07.82.82,0,0,1-.41-.11l-.52-.24a4.18,4.18,0,0,0-.66-.24,3.33,3.33,0,0,0-.89-.11,2.07,2.07,0,0,0-1.24.33,1.06,1.06,0,0,0-.45.88.81.81,0,0,0,.24.6,2.07,2.07,0,0,0,.61.43,6.79,6.79,0,0,0,.88.33c.32.1.65.2,1,.32s.66.25,1,.4a3.32,3.32,0,0,1,.87.56,2.82,2.82,0,0,1,.62.82,2.63,2.63,0,0,1,.23,1.14,3.76,3.76,0,0,1-.29,1.48,3.15,3.15,0,0,1-.85,1.17,3.89,3.89,0,0,1-1.39.77,6.15,6.15,0,0,1-1.91.28,5.91,5.91,0,0,1-1.12-.11,6.72,6.72,0,0,1-1.05-.28,5.72,5.72,0,0,1-.93-.44,3.61,3.61,0,0,1-.75-.54l.61-1a1.06,1.06,0,0,1,.28-.28.87.87,0,0,1,.42-.1.92.92,0,0,1,.47.14c.14.1.32.2.51.31a4.08,4.08,0,0,0,.69.3,2.87,2.87,0,0,0,1,.14,2.81,2.81,0,0,0,.82-.11,2,2,0,0,0,.56-.3,1.06,1.06,0,0,0,.33-.43,1.44,1.44,0,0,0,.1-.5.93.93,0,0,0-.23-.64,2.07,2.07,0,0,0-.62-.43,4.75,4.75,0,0,0-.88-.33l-1-.32a9.55,9.55,0,0,1-1-.41,3.31,3.31,0,0,1-.88-.59,2.75,2.75,0,0,1-.62-.87,3.41,3.41,0,0,1,0-2.56,3.11,3.11,0,0,1,.8-1.08,3.92,3.92,0,0,1,1.31-.73,5.25,5.25,0,0,1,1.81-.28,5.63,5.63,0,0,1,2.09.38,4.68,4.68,0,0,1,1.57,1Z"/><path d="M281.71,248.92a2.94,2.94,0,0,1-2.22-.82,3.15,3.15,0,0,1-.77-2.26v-6.2h-1.14a.53.53,0,0,1-.37-.14.58.58,0,0,1-.15-.43V238l1.79-.29.56-3a.56.56,0,0,1,.2-.34.65.65,0,0,1,.39-.12h1.39v3.5h3v1.91h-3v6a1.26,1.26,0,0,0,.25.81.9.9,0,0,0,.7.29,1.25,1.25,0,0,0,.42-.06l.29-.12.22-.13a.39.39,0,0,1,.2-.06.29.29,0,0,1,.19.06,1,1,0,0,1,.17.18l.8,1.3a4.27,4.27,0,0,1-1.34.74A5.22,5.22,0,0,1,281.71,248.92Z"/><path d="M294,232.65v16.09h-2.68V232.65Z"/><path d="M298.77,243.52a5.09,5.09,0,0,0,.3,1.48,3,3,0,0,0,.63,1,2.6,2.6,0,0,0,.92.61,3.5,3.5,0,0,0,1.19.2,3.4,3.4,0,0,0,1.12-.16,5.37,5.37,0,0,0,.82-.33c.24-.12.44-.24.62-.34a1.06,1.06,0,0,1,.51-.15.57.57,0,0,1,.5.25l.77,1a4.61,4.61,0,0,1-1,.88,5.56,5.56,0,0,1-1.15.56,6.59,6.59,0,0,1-1.22.3,8.47,8.47,0,0,1-1.21.08,5.82,5.82,0,0,1-2.15-.38,5,5,0,0,1-1.74-1.14,5.28,5.28,0,0,1-1.15-1.86,7,7,0,0,1-.43-2.57,6.29,6.29,0,0,1,.37-2.14,5.12,5.12,0,0,1,1.06-1.74,5,5,0,0,1,1.68-1.18,5.48,5.48,0,0,1,2.23-.43,5.31,5.31,0,0,1,1.94.34,4.23,4.23,0,0,1,1.53,1,4.54,4.54,0,0,1,1,1.58,5.87,5.87,0,0,1,.36,2.13,1.69,1.69,0,0,1-.13.82.54.54,0,0,1-.5.21Zm5.1-1.61a3.14,3.14,0,0,0-.15-1,2.27,2.27,0,0,0-.44-.81,2,2,0,0,0-.74-.54,2.44,2.44,0,0,0-1-.2,2.49,2.49,0,0,0-1.83.66,3.23,3.23,0,0,0-.85,1.87Z"/><path d="M311.87,248.92a3,3,0,0,1-2.23-.82,3.19,3.19,0,0,1-.77-2.26v-6.2h-1.14a.55.55,0,0,1-.37-.14.58.58,0,0,1-.15-.43V238l1.79-.29.56-3a.62.62,0,0,1,.21-.34.61.61,0,0,1,.39-.12h1.38v3.5h4.63l.57-3a.61.61,0,0,1,.2-.34.62.62,0,0,1,.4-.12h1.37v3.5h3v1.91h-3v6a1.21,1.21,0,0,0,.26.81.9.9,0,0,0,.7.29,1.33,1.33,0,0,0,.42-.06l.29-.12.22-.13a.39.39,0,0,1,.2-.06.34.34,0,0,1,.2.06,1,1,0,0,1,.16.18l.8,1.3a4.27,4.27,0,0,1-1.34.74,5.21,5.21,0,0,1-1.57.25,3,3,0,0,1-2.23-.82,3.15,3.15,0,0,1-.78-2.26v-6.2h-4.5v6a1.21,1.21,0,0,0,.26.81.89.89,0,0,0,.7.29,1.22,1.22,0,0,0,.41-.06l.3-.12.22-.13a.35.35,0,0,1,.19-.06.32.32,0,0,1,.2.06,1,1,0,0,1,.16.18l.8,1.3a4.27,4.27,0,0,1-1.34.74A5.21,5.21,0,0,1,311.87,248.92Z"/><path d="M325.36,243.52a5.09,5.09,0,0,0,.3,1.48,3,3,0,0,0,.63,1,2.6,2.6,0,0,0,.92.61,3.5,3.5,0,0,0,1.19.2,3.4,3.4,0,0,0,1.12-.16,5.37,5.37,0,0,0,.82-.33c.24-.12.44-.24.62-.34a1.06,1.06,0,0,1,.51-.15.57.57,0,0,1,.5.25l.77,1a4.57,4.57,0,0,1-1,.88,5.9,5.9,0,0,1-1.16.56,6.59,6.59,0,0,1-1.22.3,8.47,8.47,0,0,1-1.21.08,5.82,5.82,0,0,1-2.15-.38,5,5,0,0,1-1.74-1.14,5.28,5.28,0,0,1-1.15-1.86,7,7,0,0,1-.43-2.57,6.29,6.29,0,0,1,.37-2.14,5.12,5.12,0,0,1,1.06-1.74,5,5,0,0,1,1.68-1.18,5.48,5.48,0,0,1,2.23-.43,5.31,5.31,0,0,1,1.94.34,4.23,4.23,0,0,1,1.53,1,4.54,4.54,0,0,1,1,1.58,5.87,5.87,0,0,1,.36,2.13,1.69,1.69,0,0,1-.13.82.54.54,0,0,1-.5.21Zm5.1-1.61a3.14,3.14,0,0,0-.15-1,2.27,2.27,0,0,0-.44-.81,2,2,0,0,0-.74-.54,2.44,2.44,0,0,0-1-.2,2.49,2.49,0,0,0-1.83.66,3.23,3.23,0,0,0-.85,1.87Z"/><path d="M337.39,239.56a4.69,4.69,0,0,1,1.23-1.56,2.64,2.64,0,0,1,1.69-.57,2.08,2.08,0,0,1,1.23.33l-.17,2a.5.5,0,0,1-.16.27.4.4,0,0,1-.27.08,2.58,2.58,0,0,1-.48-.05,3.48,3.48,0,0,0-.63,0,2.43,2.43,0,0,0-.79.12,2.07,2.07,0,0,0-.62.38,2.61,2.61,0,0,0-.49.59,5.29,5.29,0,0,0-.39.79v6.84h-2.68V237.63h1.57a.86.86,0,0,1,.58.15.81.81,0,0,1,.21.52Z"/><line class="cls-1" x1="266.65" y1="276" x2="266.65" y2="299.67"/><polygon class="cls-2" points="257.76 292.93 266.65 296.71 275.54 292.93 266.65 314 257.76 292.93"/><path class="cls-5" d="M266.27,491a2.84,2.84,0,0,1-1.65-.49L142.49,402.59a1.38,1.38,0,0,1,0-2.38l122.13-87.92a3.12,3.12,0,0,1,3.3,0l122.13,87.92a1.47,1.47,0,0,1,.68,1.19,1.5,1.5,0,0,1-.68,1.19L267.92,490.51A2.84,2.84,0,0,1,266.27,491ZM147.44,401.4l118.83,85.54L385.1,401.4,266.27,315.85Z"/><path d="M181.8,408.74v-8.82l-.94-.14a1.3,1.3,0,0,1-.49-.22.54.54,0,0,1-.18-.44v-1.06h1.61v-.34a5.27,5.27,0,0,1,.32-1.84,4,4,0,0,1,1-1.46,4.63,4.63,0,0,1,1.67-1,7.21,7.21,0,0,1,2.39-.35c.3,0,.6,0,.9,0a4.56,4.56,0,0,1,.79.16l-.08,1.34a.29.29,0,0,1-.26.29,3.28,3.28,0,0,1-.6.05,7.46,7.46,0,0,0-1.71.17,2.74,2.74,0,0,0-1.11.54,1.9,1.9,0,0,0-.61.88,3.8,3.8,0,0,0-.18,1.23v.26H191v10.68h-2.59v-8.83h-4v8.83Z"/><path d="M196.09,399.84a4.56,4.56,0,0,1,1.19-1.52,2.56,2.56,0,0,1,1.64-.55,2.05,2.05,0,0,1,1.2.32l-.17,2a.44.44,0,0,1-.15.26.4.4,0,0,1-.27.08,2.57,2.57,0,0,1-.47-.05,4,4,0,0,0-.6-.05,2.3,2.3,0,0,0-.77.12,2.07,2.07,0,0,0-.6.37,2.2,2.2,0,0,0-.47.57,5,5,0,0,0-.39.77v6.63h-2.59V398h1.52a.88.88,0,0,1,.56.14.93.93,0,0,1,.21.51Z"/><path d="M208,400.07a.63.63,0,0,1-.23.23.5.5,0,0,1-.29.07.88.88,0,0,1-.4-.1l-.5-.24a4.46,4.46,0,0,0-.65-.23,3,3,0,0,0-.85-.11,2,2,0,0,0-1.21.33,1,1,0,0,0-.43.85.81.81,0,0,0,.22.58,1.81,1.81,0,0,0,.6.41,5.21,5.21,0,0,0,.85.32l1,.31c.32.12.64.24,1,.39a3.18,3.18,0,0,1,.84.54,2.51,2.51,0,0,1,.6.8,2.46,2.46,0,0,1,.23,1.11,3.51,3.51,0,0,1-.28,1.43,3.2,3.2,0,0,1-.82,1.14,4.17,4.17,0,0,1-1.35.74,5.88,5.88,0,0,1-1.86.27,5.49,5.49,0,0,1-1.08-.1,6.35,6.35,0,0,1-1-.28,5.34,5.34,0,0,1-.9-.42,4.12,4.12,0,0,1-.73-.52l.59-1a.8.8,0,0,1,.28-.27.7.7,0,0,1,.4-.1.82.82,0,0,1,.45.14c.15.09.31.19.5.29a3.83,3.83,0,0,0,.67.3,3,3,0,0,0,1,.13,2.32,2.32,0,0,0,.79-.11,1.69,1.69,0,0,0,.55-.29,1,1,0,0,0,.31-.41,1.19,1.19,0,0,0,.1-.49.87.87,0,0,0-.22-.62,2,2,0,0,0-.6-.42,6.33,6.33,0,0,0-.85-.32c-.32-.09-.65-.2-1-.31a8.18,8.18,0,0,1-1-.39,3.39,3.39,0,0,1-.86-.57,2.8,2.8,0,0,1-.59-.86,2.93,2.93,0,0,1-.23-1.21,3,3,0,0,1,1-2.31,3.84,3.84,0,0,1,1.28-.71,5.19,5.19,0,0,1,1.75-.27,5.28,5.28,0,0,1,2,.37,4.55,4.55,0,0,1,1.52,1Z"/><path d="M214.26,408.91a2.84,2.84,0,0,1-2.16-.79,3.06,3.06,0,0,1-.75-2.19v-6h-1.1a.52.52,0,0,1-.36-.13.58.58,0,0,1-.14-.41v-1l1.73-.29.55-2.94a.51.51,0,0,1,.2-.32.55.55,0,0,1,.37-.12H214v3.39h2.87v1.85H214v5.84a1.2,1.2,0,0,0,.24.79.85.85,0,0,0,.68.28,1.22,1.22,0,0,0,.41-.06l.28-.12.21-.12a.38.38,0,0,1,.19-.06.29.29,0,0,1,.19.06,1.36,1.36,0,0,1,.16.17l.78,1.26a3.94,3.94,0,0,1-1.3.72A4.94,4.94,0,0,1,214.26,408.91Z"/><path d="M226.21,393.14v15.6h-2.59v-15.6Z"/><path d="M230.8,403.68a5.16,5.16,0,0,0,.29,1.43,3,3,0,0,0,.61,1,2.47,2.47,0,0,0,.9.59,3.27,3.27,0,0,0,1.15.19,3.9,3.9,0,0,0,1.09-.14,5.52,5.52,0,0,0,.8-.33l.59-.32a1,1,0,0,1,.5-.15.55.55,0,0,1,.49.24l.74.94a4.51,4.51,0,0,1-1,.85,5.54,5.54,0,0,1-1.12.55,7.12,7.12,0,0,1-1.19.29,9.46,9.46,0,0,1-1.17.08,5.71,5.71,0,0,1-2.09-.37,4.74,4.74,0,0,1-1.68-1.11,5,5,0,0,1-1.12-1.8,6.86,6.86,0,0,1-.41-2.5,6.16,6.16,0,0,1,.35-2.07,4.92,4.92,0,0,1,1-1.69,4.69,4.69,0,0,1,1.63-1.14,5.34,5.34,0,0,1,2.16-.42,5.19,5.19,0,0,1,1.88.33,3.89,3.89,0,0,1,1.48.95,4.14,4.14,0,0,1,1,1.53,5.58,5.58,0,0,1,.36,2.07,1.75,1.75,0,0,1-.13.8.52.52,0,0,1-.48.2Zm4.95-1.56a2.91,2.91,0,0,0-.15-.95,2.22,2.22,0,0,0-.42-.79,2,2,0,0,0-.72-.53,2.46,2.46,0,0,0-1-.19,2.39,2.39,0,0,0-1.77.64,3.16,3.16,0,0,0-.83,1.82Z"/><path d="M243.5,408.91a2.82,2.82,0,0,1-2.15-.79,3.06,3.06,0,0,1-.75-2.19v-6h-1.11a.48.48,0,0,1-.35-.13.54.54,0,0,1-.15-.41v-1l1.73-.29.55-2.94a.51.51,0,0,1,.2-.32.58.58,0,0,1,.38-.12h1.34v3.39h4.48l.56-2.95a.54.54,0,0,1,.19-.32.61.61,0,0,1,.39-.12h1.33v3.39H253v1.85h-2.88v5.84a1.15,1.15,0,0,0,.25.79.88.88,0,0,0,.69.28,1.14,1.14,0,0,0,.39-.06l.29-.12.22-.12a.33.33,0,0,1,.19-.06.31.31,0,0,1,.19.06.86.86,0,0,1,.15.17l.78,1.26a3.84,3.84,0,0,1-1.3.72,4.88,4.88,0,0,1-1.52.24,2.86,2.86,0,0,1-2.17-.79,3.06,3.06,0,0,1-.75-2.19v-6h-4.36v5.84a1.15,1.15,0,0,0,.25.79.83.83,0,0,0,.67.28,1.22,1.22,0,0,0,.41-.06l.28-.12.22-.12a.33.33,0,0,1,.19-.06.31.31,0,0,1,.19.06,1.38,1.38,0,0,1,.15.17l.78,1.26a3.84,3.84,0,0,1-1.3.72A4.9,4.9,0,0,1,243.5,408.91Z"/><path d="M256.59,403.68a5.16,5.16,0,0,0,.29,1.43,3,3,0,0,0,.61,1,2.39,2.39,0,0,0,.9.59,3.23,3.23,0,0,0,1.15.19,3.78,3.78,0,0,0,1.08-.14,4.72,4.72,0,0,0,.8-.33l.6-.32a1,1,0,0,1,.5-.15.52.52,0,0,1,.48.24l.75.94a4.33,4.33,0,0,1-1,.85,5.29,5.29,0,0,1-1.12.55,6.78,6.78,0,0,1-1.18.29,9.46,9.46,0,0,1-1.17.08,5.71,5.71,0,0,1-2.09-.37,4.57,4.57,0,0,1-1.68-1.11,5.12,5.12,0,0,1-1.13-1.8,7.08,7.08,0,0,1-.41-2.5,5.93,5.93,0,0,1,.36-2.07,4.92,4.92,0,0,1,1-1.69,4.74,4.74,0,0,1,1.62-1.14,5.38,5.38,0,0,1,2.17-.42,5.19,5.19,0,0,1,1.88.33,4,4,0,0,1,1.48.95,4.27,4.27,0,0,1,1,1.53,5.58,5.58,0,0,1,.35,2.07,1.78,1.78,0,0,1-.12.8.55.55,0,0,1-.49.2Zm4.94-1.56a2.91,2.91,0,0,0-.14-.95,2.4,2.4,0,0,0-.42-.79,2,2,0,0,0-.72-.53,2.48,2.48,0,0,0-1-.19,2.39,2.39,0,0,0-1.77.64,3.15,3.15,0,0,0-.82,1.82Z"/><path d="M268.25,399.84a4.71,4.71,0,0,1,1.2-1.52,2.54,2.54,0,0,1,1.64-.55,2,2,0,0,1,1.19.32l-.16,2a.51.51,0,0,1-.16.26.35.35,0,0,1-.26.08,2.49,2.49,0,0,1-.47-.05,4.28,4.28,0,0,0-.6-.05,2.26,2.26,0,0,0-.77.12,2,2,0,0,0-.6.37,2.46,2.46,0,0,0-.48.57,6.14,6.14,0,0,0-.38.77v6.63h-2.59V398h1.52a.9.9,0,0,1,.56.14.93.93,0,0,1,.21.51Z"/><path d="M278.46,398.87h9.3v1.92h-9.3Zm0,3.7h9.3v1.93h-9.3Z"/><path d="M304.79,398l-4.27,10.77h-2.35L293.89,398H296a.76.76,0,0,1,.48.14.62.62,0,0,1,.26.34l2.08,5.76c.11.33.21.66.29,1s.16.65.23,1c.06-.32.14-.65.23-1a9.92,9.92,0,0,1,.3-1l2.12-5.76a.74.74,0,0,1,.72-.48Z"/><path d="M310.6,397.8a5.87,5.87,0,0,1,2.18.39,4.63,4.63,0,0,1,2.75,2.85,7.15,7.15,0,0,1,0,4.6,5,5,0,0,1-1.07,1.76,4.83,4.83,0,0,1-1.68,1.11,5.87,5.87,0,0,1-2.18.39,5.94,5.94,0,0,1-2.2-.39,4.83,4.83,0,0,1-1.68-1.11,4.92,4.92,0,0,1-1.08-1.76,7,7,0,0,1,0-4.6,4.79,4.79,0,0,1,1.08-1.75,5,5,0,0,1,1.68-1.1A5.94,5.94,0,0,1,310.6,397.8Zm0,9.1a2.28,2.28,0,0,0,2-.9,4.51,4.51,0,0,0,.64-2.64,4.58,4.58,0,0,0-.64-2.66,2.26,2.26,0,0,0-2-.91,2.32,2.32,0,0,0-2,.91,4.54,4.54,0,0,0-.66,2.66,4.47,4.47,0,0,0,.66,2.64A2.34,2.34,0,0,0,310.6,406.9Z"/><path d="M333.1,398l-3.42,10.77H327.6c-.24,0-.4-.15-.49-.46l-1.94-6.23c-.06-.21-.12-.42-.17-.62s-.1-.42-.13-.63c0,.21-.09.43-.14.64s-.11.42-.18.63l-2,6.21a.54.54,0,0,1-.56.46h-2L316.63,398h2.06a.81.81,0,0,1,.49.14.62.62,0,0,1,.26.34l1.54,5.76c.08.31.15.62.21.92s.11.6.15.9c.08-.3.16-.6.25-.9s.18-.61.28-.92l1.78-5.78a.68.68,0,0,1,.69-.48h1.15a.81.81,0,0,1,.47.13.71.71,0,0,1,.25.35l1.74,5.78c.09.31.17.62.25.92l.24.91a16.7,16.7,0,0,1,.39-1.83l1.58-5.76a.69.69,0,0,1,.27-.34.67.67,0,0,1,.45-.14Z"/><path d="M336.39,403.68a5.16,5.16,0,0,0,.29,1.43,3,3,0,0,0,.61,1,2.39,2.39,0,0,0,.9.59,3.23,3.23,0,0,0,1.15.19,3.78,3.78,0,0,0,1.08-.14,4.72,4.72,0,0,0,.8-.33l.6-.32a1,1,0,0,1,.5-.15.52.52,0,0,1,.48.24l.75.94a4.33,4.33,0,0,1-1,.85,5.29,5.29,0,0,1-1.12.55,6.78,6.78,0,0,1-1.18.29,9.59,9.59,0,0,1-1.17.08,5.71,5.71,0,0,1-2.09-.37,4.57,4.57,0,0,1-1.68-1.11,5.12,5.12,0,0,1-1.13-1.8,7.08,7.08,0,0,1-.41-2.5,5.93,5.93,0,0,1,.36-2.07,4.92,4.92,0,0,1,1-1.69,4.74,4.74,0,0,1,1.62-1.14,5.38,5.38,0,0,1,2.17-.42,5.19,5.19,0,0,1,1.88.33,4,4,0,0,1,1.48.95,4.27,4.27,0,0,1,1,1.53,5.58,5.58,0,0,1,.35,2.07,1.78,1.78,0,0,1-.12.8.55.55,0,0,1-.49.2Zm4.94-1.56a2.91,2.91,0,0,0-.14-.95,2.4,2.4,0,0,0-.42-.79,2,2,0,0,0-.72-.53,2.48,2.48,0,0,0-1-.19,2.39,2.39,0,0,0-1.77.64,3.15,3.15,0,0,0-.82,1.82Z"/><path d="M348.23,393.14v15.6h-2.59v-15.6Z"/><rect class="cls-4" x="1.67" y="508.75" width="246" height="62"/><path d="M68.58,546H66.32a.93.93,0,0,1-.61-.19,1.12,1.12,0,0,1-.36-.47l-1.17-3.19H57.69l-1.16,3.19a1,1,0,0,1-.34.46,1,1,0,0,1-.62.2H53.3l6.16-15.65h3Zm-5.15-5.91-1.9-5.21a8.36,8.36,0,0,1-.29-.82c-.11-.32-.21-.66-.31-1-.09.37-.19.71-.29,1s-.2.61-.29.84l-1.9,5.19Z"/><path d="M75.29,530.34a9.19,9.19,0,0,1,2.72.36,5.35,5.35,0,0,1,1.89,1A4.06,4.06,0,0,1,81,533.31a5.54,5.54,0,0,1,.36,2,5.42,5.42,0,0,1-.38,2.08A4.31,4.31,0,0,1,79.86,539,5.22,5.22,0,0,1,78,540.1a8.55,8.55,0,0,1-2.67.38H73.11V546H70.2V530.34Zm0,7.87a4.54,4.54,0,0,0,1.4-.2,2.85,2.85,0,0,0,1-.58,2.35,2.35,0,0,0,.59-.91,3.42,3.42,0,0,0,.19-1.19,3.17,3.17,0,0,0-.19-1.14,2.28,2.28,0,0,0-.59-.87,2.65,2.65,0,0,0-1-.54,4.58,4.58,0,0,0-1.41-.19H73.11v5.62Z"/><path d="M88.69,530.34a9.15,9.15,0,0,1,2.72.36,5.26,5.26,0,0,1,1.89,1,4.06,4.06,0,0,1,1.11,1.58,5.34,5.34,0,0,1,.37,2,5.62,5.62,0,0,1-.38,2.08A4.34,4.34,0,0,1,93.26,539a5.14,5.14,0,0,1-1.9,1.06,8.55,8.55,0,0,1-2.67.38H86.52V546H83.6V530.34Zm0,7.87a4.5,4.5,0,0,0,1.4-.2,2.68,2.68,0,0,0,1-.58,2.35,2.35,0,0,0,.59-.91,3.42,3.42,0,0,0,.19-1.19,3.17,3.17,0,0,0-.19-1.14,2.28,2.28,0,0,0-.59-.87,2.57,2.57,0,0,0-1-.54,4.58,4.58,0,0,0-1.41-.19H86.52v5.62Z"/><path d="M99.93,532.65V537h5.48v2.25H99.93v4.42h6.95V546H97V530.34h9.87v2.31Z"/><path d="M122.66,530.34V546h-1.5a1.43,1.43,0,0,1-.58-.11,1.57,1.57,0,0,1-.45-.39L112,535.06q.06.71.06,1.32V546h-2.56V530.34h1.84a.61.61,0,0,1,.24.07.66.66,0,0,1,.2.14,1.79,1.79,0,0,1,.22.24l8.21,10.48c0-.25,0-.5-.06-.74s0-.48,0-.69v-9.51Z"/><path d="M140,538.16a8.55,8.55,0,0,1-.57,3.17,7.12,7.12,0,0,1-4.12,4.09,8.82,8.82,0,0,1-3.24.57h-6V530.34h6a8.61,8.61,0,0,1,3.24.58,7.27,7.27,0,0,1,2.51,1.61,7.19,7.19,0,0,1,1.61,2.47A8.54,8.54,0,0,1,140,538.16Zm-3,0a7.23,7.23,0,0,0-.35-2.31,4.65,4.65,0,0,0-1-1.73,4.44,4.44,0,0,0-1.56-1.09,5.4,5.4,0,0,0-2.06-.38h-3.05v11h3.05a5.4,5.4,0,0,0,2.06-.37,4.44,4.44,0,0,0,1.56-1.09,4.73,4.73,0,0,0,1-1.73A7.29,7.29,0,0,0,137.06,538.16Z"/><path d="M147.84,535.93a5.53,5.53,0,0,1-.71-1.78,5.12,5.12,0,0,1,0-1.83,4.91,4.91,0,0,1,.64-1.73A5.47,5.47,0,0,1,149,529.1l.83.51a.37.37,0,0,1,.2.35.56.56,0,0,1-.14.32,3.33,3.33,0,0,0-.44.72,3.59,3.59,0,0,0-.28,1,3.9,3.9,0,0,0,0,1.18,3.47,3.47,0,0,0,.49,1.26.62.62,0,0,1,.11.55.59.59,0,0,1-.36.33Zm3.59,0a5.51,5.51,0,0,1-.7-1.78,5,5,0,0,1,.6-3.56,5.47,5.47,0,0,1,1.29-1.49l.84.51a.36.36,0,0,1,.19.35.5.5,0,0,1-.14.32,3.33,3.33,0,0,0-.43.72,3.59,3.59,0,0,0-.29,1,3.92,3.92,0,0,0,0,1.18,3.44,3.44,0,0,0,.48,1.26.62.62,0,0,1,.11.55.55.55,0,0,1-.35.33Z"/><path d="M165.91,534.88l-6,14.16a1,1,0,0,1-.31.43.94.94,0,0,1-.58.15h-2l2.07-4.46-4.49-10.28h2.35a.69.69,0,0,1,.49.16,1,1,0,0,1,.27.34l2.36,5.76a4.56,4.56,0,0,1,.2.59c.05.19.11.39.16.59.06-.2.13-.4.19-.6s.14-.39.22-.59l2.23-5.75a.88.88,0,0,1,.28-.36.82.82,0,0,1,.45-.14Z"/><path d="M166.73,536.43a6.6,6.6,0,0,1,4.61-1.75,4.44,4.44,0,0,1,1.75.32,3.57,3.57,0,0,1,2.1,2.24,5.12,5.12,0,0,1,.28,1.74v7h-1.21a1.32,1.32,0,0,1-.59-.11.79.79,0,0,1-.32-.46l-.24-.8c-.28.25-.56.47-.82.66a5,5,0,0,1-.84.48,4.72,4.72,0,0,1-.92.3,5.29,5.29,0,0,1-1.09.11,4.49,4.49,0,0,1-1.3-.19,3,3,0,0,1-1-.57,2.6,2.6,0,0,1-.67-.95,3.28,3.28,0,0,1-.24-1.3,2.64,2.64,0,0,1,.14-.84,2.59,2.59,0,0,1,.46-.8,3.72,3.72,0,0,1,.83-.71,5.39,5.39,0,0,1,1.25-.59,10.77,10.77,0,0,1,1.73-.41,19.56,19.56,0,0,1,2.25-.19V539a2.44,2.44,0,0,0-.48-1.66,1.76,1.76,0,0,0-1.37-.53,3.31,3.31,0,0,0-1.08.15,4.79,4.79,0,0,0-.75.34l-.59.34a1.2,1.2,0,0,1-.59.15.76.76,0,0,1-.48-.14,1.24,1.24,0,0,1-.31-.34Zm6.13,4.82a15.11,15.11,0,0,0-2,.2,5.42,5.42,0,0,0-1.27.37,1.73,1.73,0,0,0-.68.53,1.34,1.34,0,0,0,.21,1.67,1.83,1.83,0,0,0,1.09.3,3.27,3.27,0,0,0,1.42-.29,4.17,4.17,0,0,0,1.18-.91Z"/><path d="M187.76,534.88,181.7,549a1,1,0,0,1-.3.43.94.94,0,0,1-.58.15h-2l2.08-4.46-4.49-10.28h2.35a.69.69,0,0,1,.49.16,1,1,0,0,1,.27.34l2.36,5.76c.08.2.14.39.2.59l.15.59.2-.6c.06-.2.14-.39.22-.59l2.23-5.75a.81.81,0,0,1,.28-.36.82.82,0,0,1,.45-.14Z"/><path d="M190.91,529.29a5.51,5.51,0,0,1,.7,1.78,5,5,0,0,1-.6,3.56,5.47,5.47,0,0,1-1.29,1.49l-.85-.51a.38.38,0,0,1-.15-.16.39.39,0,0,1,0-.18.61.61,0,0,1,0-.18.31.31,0,0,1,.1-.15,3.33,3.33,0,0,0,.43-.72,3.69,3.69,0,0,0,.29-1,4.26,4.26,0,0,0,0-1.18,3.5,3.5,0,0,0-.5-1.26.68.68,0,0,1-.1-.55.57.57,0,0,1,.35-.33Zm3.59,0a5.53,5.53,0,0,1,.71,1.78,5.12,5.12,0,0,1,0,1.83,4.91,4.91,0,0,1-.64,1.73,5.47,5.47,0,0,1-1.29,1.49l-.84-.51a.35.35,0,0,1-.16-.16.38.38,0,0,1,0-.18.39.39,0,0,1,0-.18.56.56,0,0,1,.1-.15,3.33,3.33,0,0,0,.44-.72,3.69,3.69,0,0,0,.28-1,3.61,3.61,0,0,0,0-1.18,3.47,3.47,0,0,0-.49-1.26.64.64,0,0,1-.1-.55.55.55,0,0,1,.35-.33Z"/><path d="M162.53,472a2.31,2.31,0,0,1-1.75.52,2.43,2.43,0,0,1-1.51-1l-2.85-3.82-.7.52a.38.38,0,0,1-.29.08.42.42,0,0,1-.29-.19l-.48-.65,1-1-1-2.13a.52.52,0,0,1,0-.3.5.5,0,0,1,.19-.25l.85-.64,1.61,2.16,1.82-1.36.88,1.17-1.83,1.36,2.76,3.71a.93.93,0,0,0,.53.38.65.65,0,0,0,.57-.14,1,1,0,0,0,.23-.22,1.64,1.64,0,0,0,.12-.22,1.42,1.42,0,0,0,.08-.18.27.27,0,0,1,.09-.12.18.18,0,0,1,.15-.05l.18,0,1.09.44a3,3,0,0,1-.49,1.06A3.74,3.74,0,0,1,162.53,472Z"/><path d="M162.47,463a3.69,3.69,0,0,1,0-1.53,2,2,0,0,1,.78-1.13,1.58,1.58,0,0,1,.92-.35l.81,1.31a.36.36,0,0,1,0,.24.32.32,0,0,1-.13.18l-.32.19a2.36,2.36,0,0,0-.41.25,1.49,1.49,0,0,0-.43.44,1.58,1.58,0,0,0-.21.52,1.86,1.86,0,0,0,0,.58,4.53,4.53,0,0,0,.12.67l3.14,4.22-1.65,1.22L160,463l1-.72a.7.7,0,0,1,.42-.17.62.62,0,0,1,.37.22Z"/><path d="M170.9,454.91l5.1,6.85-1,.75a.49.49,0,0,1-.63,0l-.52-.47a4.52,4.52,0,0,1-.42,1.38,3.16,3.16,0,0,1-1,1.16,3,3,0,0,1-1.14.54,2.49,2.49,0,0,1-1.12,0,2.93,2.93,0,0,1-1.06-.5,4.37,4.37,0,0,1-.93-.94l-3.24-4.35,1.65-1.22,3.24,4.35a1.83,1.83,0,0,0,1,.75,1.35,1.35,0,0,0,1.13-.3,2.39,2.39,0,0,0,.66-.79,3.39,3.39,0,0,0,.31-1.05l-3.68-4.95Z"/><path d="M176.5,456.39a4.3,4.3,0,0,0,.87.77,2.17,2.17,0,0,0,.85.34,1.88,1.88,0,0,0,.85-.05,2.5,2.5,0,0,0,.83-.42,3,3,0,0,0,.62-.61,4.71,4.71,0,0,0,.35-.58c.09-.18.16-.35.23-.49a.83.83,0,0,1,.24-.33.41.41,0,0,1,.42-.07l.93.24a3.72,3.72,0,0,1-.22,1,4.48,4.48,0,0,1-.45.87,4.94,4.94,0,0,1-.62.75,6.38,6.38,0,0,1-.7.6,4.62,4.62,0,0,1-1.5.76,3.89,3.89,0,0,1-1.59.09,3.94,3.94,0,0,1-1.57-.62,5.22,5.22,0,0,1-1.44-1.39,4.73,4.73,0,0,1-.76-1.48,4.17,4.17,0,0,1-.15-1.56,3.81,3.81,0,0,1,.5-1.49,4.24,4.24,0,0,1,1.18-1.3,4.35,4.35,0,0,1,1.34-.68,3.51,3.51,0,0,1,1.4-.1,3.66,3.66,0,0,1,1.34.52,4.47,4.47,0,0,1,1.2,1.15,1.33,1.33,0,0,1,.3.56.41.41,0,0,1-.21.36Zm2.4-3.34a2.46,2.46,0,0,0-.54-.53,1.63,1.63,0,0,0-.64-.3,1.65,1.65,0,0,0-.7,0,2,2,0,0,0-.74.36,1.87,1.87,0,0,0-.82,1.24,2.55,2.55,0,0,0,.33,1.55Z"/><path d="M361,451.77l4.62-5.24-.48-.58a1,1,0,0,1-.17-.38.41.41,0,0,1,.12-.35l.55-.63,1,.84L367,445a3.76,3.76,0,0,1,1-.83,2.62,2.62,0,0,1,1.13-.33,2.66,2.66,0,0,1,1.16.2,3.74,3.74,0,0,1,1.14.72,3.5,3.5,0,0,1,.72.84l-.71.75a.34.34,0,0,1-.18.09.28.28,0,0,1-.18,0,.66.66,0,0,1-.2-.11l-.21-.16a2.54,2.54,0,0,0-.54-.38,1.18,1.18,0,0,0-.55-.11,1.34,1.34,0,0,0-.57.18,2.78,2.78,0,0,0-.6.53l-.37.42,1.66,1.47-1,1.1-1.61-1.42-4.63,5.24Z"/><path d="M369.7,449.67a5,5,0,0,1,3.55,1.33,3.6,3.6,0,0,1,.84,1.07,2.74,2.74,0,0,1,.3,1.17,2.93,2.93,0,0,1-.23,1.19,3.9,3.9,0,0,1-.72,1.14l-3.57,4-.7-.61a.94.94,0,0,1-.27-.37.61.61,0,0,1,0-.43l.27-.58a6.86,6.86,0,0,1-.81,0,3.4,3.4,0,0,1-.72-.14,3.21,3.21,0,0,1-.69-.3,4.6,4.6,0,0,1-.68-.49,3.55,3.55,0,0,1-.65-.77,2.35,2.35,0,0,1-.3-.85,1.94,1.94,0,0,1,.09-.89,2.61,2.61,0,0,1,.53-.87,2,2,0,0,1,1.18-.64,3,3,0,0,1,.84,0,3.89,3.89,0,0,1,1,.3,7.93,7.93,0,0,1,1.2.64,13.21,13.21,0,0,1,1.4,1l.33-.37a1.87,1.87,0,0,0,.56-1.2,1.33,1.33,0,0,0-.52-1,2.94,2.94,0,0,0-.69-.46,4.51,4.51,0,0,0-.61-.18l-.51-.11a.84.84,0,0,1-.42-.21.53.53,0,0,1-.2-.32.88.88,0,0,1,0-.36Zm1.08,5.88a11.19,11.19,0,0,0-1.22-.87,4,4,0,0,0-.92-.43,1.28,1.28,0,0,0-.66,0,.82.82,0,0,0-.46.28.87.87,0,0,0-.27.79,1.37,1.37,0,0,0,.47.72,2.49,2.49,0,0,0,1,.56,3.23,3.23,0,0,0,1.14.07Z"/><path d="M381.06,453l-8.18,9.26-1.54-1.35,8.18-9.27Z"/><path d="M382.87,461.92a.48.48,0,0,1-.26,0,.43.43,0,0,1-.21-.11.91.91,0,0,1-.18-.27l-.18-.41a3.09,3.09,0,0,0-.25-.47,2.36,2.36,0,0,0-.46-.51,1.53,1.53,0,0,0-.88-.44.81.81,0,0,0-.71.27.7.7,0,0,0-.17.47,1.59,1.59,0,0,0,.14.56,4.81,4.81,0,0,0,.33.63c.14.22.28.45.41.69a7.14,7.14,0,0,1,.37.73,2.7,2.7,0,0,1,.22.77,2.06,2.06,0,0,1-.06.78,2,2,0,0,1-.45.78,3,3,0,0,1-.92.71,2.51,2.51,0,0,1-1.08.24,2.93,2.93,0,0,1-1.19-.27,4.85,4.85,0,0,1-1.84-1.44,5.27,5.27,0,0,1-.46-.7,4.47,4.47,0,0,1-.31-.72,3.11,3.11,0,0,1-.16-.69l.87-.28a.65.65,0,0,1,.31,0,.49.49,0,0,1,.28.15.57.57,0,0,1,.2.32c0,.13.09.27.15.43a2.43,2.43,0,0,0,.24.53,2.31,2.31,0,0,0,.5.59,1.94,1.94,0,0,0,.53.35,1.28,1.28,0,0,0,.48.11.78.78,0,0,0,.4-.08,1.08,1.08,0,0,0,.32-.24.72.72,0,0,0,.19-.48,1.54,1.54,0,0,0-.14-.56,4,4,0,0,0-.34-.64c-.14-.22-.28-.46-.41-.7a7.39,7.39,0,0,1-.38-.74,2.48,2.48,0,0,1-.2-.79,2,2,0,0,1,.09-.82,2.42,2.42,0,0,1,.5-.84,2.59,2.59,0,0,1,.82-.61,2.29,2.29,0,0,1,1-.21,3,3,0,0,1,1.12.24,4.17,4.17,0,0,1,1.19.76,4.29,4.29,0,0,1,1,1.28,3.67,3.67,0,0,1,.4,1.37Z"/><path d="M383.74,466.5a3.93,3.93,0,0,0-.58,1,2.34,2.34,0,0,0-.16.91,2,2,0,0,0,.22.82,2.59,2.59,0,0,0,.58.72,2.69,2.69,0,0,0,.73.48,4.17,4.17,0,0,0,.64.23l.53.11a.86.86,0,0,1,.37.18.42.42,0,0,1,.16.39l-.05,1a3.48,3.48,0,0,1-1,0,4.3,4.3,0,0,1-1-.26,4.69,4.69,0,0,1-.86-.45,8.74,8.74,0,0,1-.73-.56,4.5,4.5,0,0,1-1.05-1.32,3.77,3.77,0,0,1-.42-1.54,4.15,4.15,0,0,1,.28-1.66,5.5,5.5,0,0,1,1.06-1.69,4.77,4.77,0,0,1,1.3-1.05,3.9,3.9,0,0,1,1.5-.46,3.67,3.67,0,0,1,1.56.17,4.29,4.29,0,0,1,1.51.89,4.15,4.15,0,0,1,.94,1.18,3.28,3.28,0,0,1,.39,1.34,3.59,3.59,0,0,1-.23,1.42,4.51,4.51,0,0,1-.88,1.41,1.29,1.29,0,0,1-.49.41.41.41,0,0,1-.39-.13Zm3.75,1.67a2.52,2.52,0,0,0,.42-.64,1.72,1.72,0,0,0,.15-.69,1.55,1.55,0,0,0-.14-.69,2.14,2.14,0,0,0-.5-.65A2,2,0,0,0,386,465a2.52,2.52,0,0,0-1.44.65Z"/></svg>
