<?xml version="1.0" ?><!DOCTYPE svg  PUBLIC '-//W3C//DTD SVG 1.1//EN'  'http://www.w3.org/Graphics/SVG/1.1/DTD/svg11.dtd' [
	<!ENTITY stroke_color "#000">
	<!ENTITY fill_color "#eee">
]><svg height="55px" viewBox="0 0 55 55" width="55px" xmlns="http://www.w3.org/2000/svg" xmlns:xlink="http://www.w3.org/1999/xlink" stroke-linecap="round" stroke-linejoin="round" stroke-width="3.5" stroke="&stroke_color;" fill="&fill_color;">
 <path d="M 27.904 11.023 L 27.902 11.023 C 27.902 11.021 26.192 8.97 18.526 8.519 C 10.86 8.07 6.843 10.121 6.84 10.122 C 4.942 10.741 3.345 11.857 3.345 13.616 L 3.345 41.318 C 3.345 43.343 4.58 44.812 6.84 44.812 C 6.843 44.812 11.25 43.462 16.844 43.462 C 22.433 43.461 27.905 45.715 27.905 45.715 " />
 <path d="M 27.898 11.023 L 27.898 11.023 C 27.898 11.021 29.613 8.97 37.275 8.519 C 44.943 8.07 48.961 10.121 48.963 10.122 C 50.86 10.741 52.457 11.857 52.457 13.616 L 52.457 41.318 C 52.457 43.343 51.224 44.812 48.963 44.812 C 48.96 44.812 44.554 43.462 38.959 43.462 C 33.37 43.461 27.897 45.715 27.897 45.715 " />
 <path d="M 27.7747 10.8997 L 28.0233 11.1407 " fill="none" />
 <path d="M 32.566 44.275 C 32.566 44.275 32.535 47.181 27.9 47.181 C 23.268 47.181 23.237 44.275 23.237 44.275 " fill="none" />
 <path d="M 48.3856 14.3653 C 48.3856 14.5145 48.3383 14.6492 48.2473 14.7729 C 48.1526 14.8931 48.0544 14.9549 47.9415 14.9549 C 47.0352 15.0423 46.2891 15.3335 45.714 15.8321 C 45.1353 16.3271 44.542 17.2771 43.9269 18.6747 L 34.5364 39.8361 C 34.4746 40.0326 34.3035 40.1309 34.0196 40.1309 C 33.7976 40.1309 33.6265 40.0326 33.5028 39.8361 L 28.2361 28.8223 L 22.1796 39.8361 C 22.0558 40.0326 21.8848 40.1309 21.6627 40.1309 C 21.3934 40.1309 21.2151 40.0326 21.1277 39.8361 L 11.901 18.6747 C 11.3259 17.3608 10.7181 16.4436 10.0775 15.9231 C 9.44055 15.4026 8.54881 15.0787 7.40958 14.9549 C 7.31131 14.9549 7.21668 14.904 7.13296 14.7984 C 7.04561 14.6965 7.00193 14.5764 7.00193 14.4417 C 7.00193 14.096 7.1002 13.9249 7.29675 13.9249 C 8.11933 13.9249 8.9783 13.9613 9.87731 14.0341 C 10.7108 14.1105 11.497 14.1469 12.2322 14.1469 C 12.982 14.1469 13.8664 14.1105 14.8856 14.0341 C 15.952 13.9613 16.8983 13.9249 17.7209 13.9249 C 17.9175 13.9249 18.0157 14.096 18.0157 14.4417 C 18.0157 14.7839 17.9539 14.9549 17.8337 14.9549 C 17.0112 15.0168 16.3633 15.2279 15.8901 15.581 C 15.417 15.9377 15.1804 16.4035 15.1804 16.9823 C 15.1804 17.2771 15.2787 17.6447 15.4752 18.0851 L 23.1004 35.3046 L 27.4281 27.1298 L 23.3952 18.6747 C 22.6709 17.1679 22.074 16.1924 21.6081 15.7557 C 21.1423 15.3225 20.4362 15.0532 19.4898 14.9549 C 19.4025 14.9549 19.3224 14.904 19.2423 14.7984 C 19.1622 14.6965 19.1222 14.5764 19.1222 14.4417 C 19.1222 14.096 19.2059 13.9249 19.3806 13.9249 C 20.2032 13.9249 20.9566 13.9613 21.6445 14.0341 C 22.307 14.1105 23.0131 14.1469 23.7629 14.1469 C 24.4981 14.1469 25.277 14.1105 26.0996 14.0341 C 26.9476 13.9613 27.7811 13.9249 28.6037 13.9249 C 28.8002 13.9249 28.8985 14.096 28.8985 14.4417 C 28.8985 14.7839 28.8403 14.9549 28.7165 14.9549 C 27.0714 15.0678 26.2488 15.5336 26.2488 16.3562 C 26.2488 16.7238 26.4381 17.2953 26.8202 18.0669 L 29.4881 23.4828 L 32.1415 18.5291 C 32.5091 17.8303 32.6947 17.2407 32.6947 16.7602 C 32.6947 15.6319 31.8722 15.0314 30.227 14.9549 C 30.0778 14.9549 30.005 14.7839 30.005 14.4417 C 30.005 14.318 30.0414 14.2015 30.1142 14.0923 C 30.1906 13.9795 30.2634 13.9249 30.3362 13.9249 C 30.9258 13.9249 31.6501 13.9613 32.5091 14.0341 C 33.3317 14.1105 34.0087 14.1469 34.5364 14.1469 C 34.915 14.1469 35.4755 14.1142 36.2107 14.0523 C 37.1425 13.9686 37.925 13.9249 38.5511 13.9249 C 38.6966 13.9249 38.7694 14.0705 38.7694 14.3653 C 38.7694 14.7584 38.6348 14.9549 38.3654 14.9549 C 37.4082 15.0532 36.6366 15.3189 36.0542 15.7484 C 35.4718 16.1779 34.7439 17.1533 33.874 18.6747 L 30.3362 25.2153 L 35.1261 34.9734 L 42.1981 18.5291 C 42.4419 17.9286 42.5657 17.3754 42.5657 16.8731 C 42.5657 15.6683 41.7431 15.0314 40.0979 14.9549 C 39.9487 14.9549 39.8759 14.7839 39.8759 14.4417 C 39.8759 14.096 39.9851 13.9249 40.2071 13.9249 C 40.8077 13.9249 41.5211 13.9613 42.3436 14.0341 C 43.1043 14.1105 43.7449 14.1469 44.2581 14.1469 C 44.8005 14.1469 45.4265 14.1105 46.1362 14.0341 C 46.8751 13.9613 47.5375 13.9249 48.1272 13.9249 C 48.2982 13.9249 48.3856 14.0705 48.3856 14.3653 Z " fill="&stroke_color;" stroke="none" />
 <path d="M 27.8925 40.4059 L 27.9055 45.7225 " fill="none" />
</svg>